<?xml version="1.0" encoding="UTF-8" standalone="no"?>
<svg width="300px" height="87px" viewBox="0 0 300 87" version="1.1" xmlns="http://www.w3.org/2000/svg" xmlns:xlink="http://www.w3.org/1999/xlink" xmlns:sketch="http://www.bohemiancoding.com/sketch/ns">
    <!-- Generator: Sketch 3.0.4 (8053) - http://www.bohemiancoding.com/sketch -->
    <title>app-retreat-2014</title>
    <desc>Created with Sketch.</desc>
    <defs></defs>
    <g id="Page-1" stroke="none" stroke-width="1" fill="none" fill-rule="evenodd" sketch:type="MSPage">
        <g id="app-retreat-2014" sketch:type="MSLayerGroup" transform="translate(0.000000, 1.000000)" fill="#FFFFFF">
            <path d="M107.074615,14.713713 L95.8076923,14.713713 L95.8076923,8.98680717 L124.885,8.98680717 L124.885,14.713713 L113.617308,14.713713 L113.617308,45.8480269 L107.074615,45.8480269 L107.074615,14.713713" id="Fill-1" sketch:type="MSShapeGroup"></path>
            <path d="M129.142692,8.98680717 L135.685385,8.98680717 L135.685385,23.877148 L152.871923,23.877148 L152.871923,8.98680717 L159.414615,8.98680717 L159.414615,45.8480269 L152.871923,45.8480269 L152.871923,29.4999283 L135.685385,29.4999283 L135.685385,45.8480269 L129.142692,45.8480269 L129.142692,8.98680717" id="Fill-2" sketch:type="MSShapeGroup"></path>
            <path d="M164.398846,8.98680717 L188.751154,8.98680717 L188.751154,14.713713 L170.941923,14.713713 L170.941923,24.0850135 L187.817308,24.0850135 L187.817308,29.6040538 L170.941923,29.6040538 L170.941923,40.0166099 L189.685769,40.0166099 L189.685769,45.8480269 L164.398846,45.8480269 L164.398846,8.98680717" id="Fill-3" sketch:type="MSShapeGroup"></path>
            <path d="M215.492692,8.98680717 L221.152308,8.98680717 L236.989231,45.8480269 L229.512308,45.8480269 L226.085385,37.4134709 L210.143846,37.4134709 L206.820769,45.8480269 L199.499231,45.8480269 L215.492692,8.98680717 L215.492692,8.98680717 Z M223.8,31.7906906 L218.140385,16.7962242 L212.377308,31.7906906 L223.8,31.7906906 L223.8,31.7906906 Z" id="Fill-4" sketch:type="MSShapeGroup"></path>
            <path d="M240.623077,8.98680717 L252.618077,8.98680717 C254.729231,8.98680717 256.633462,9.17770404 258.329615,9.55949776 C260.025769,9.94167713 261.479231,10.5664305 262.691154,11.4333722 C263.903077,12.3014709 264.837692,13.4121435 265.495385,14.7657758 C266.152692,16.1197937 266.481538,17.7514798 266.481538,19.6596771 C266.481538,21.7082511 266.100385,23.4263229 265.339615,24.8138924 C264.577308,26.2030045 263.548077,27.3221614 262.25,28.1721345 C260.951923,29.0232646 259.437308,29.639148 257.706538,30.0205561 C255.975,30.4031211 254.141154,30.5932466 252.202308,30.5932466 L247.166154,30.5932466 L247.166154,45.8480269 L240.623077,45.8480269 L240.623077,8.98680717 L240.623077,8.98680717 Z M251.735,25.0745919 C252.808462,25.0745919 253.829231,24.9966906 254.798462,24.8401166 C255.768077,24.6839283 256.633462,24.4066457 257.394615,24.0071121 C258.156154,23.6083498 258.762308,23.0618834 259.212692,22.3669417 C259.662308,21.673157 259.887692,20.7711211 259.887692,19.6596771 C259.887692,18.5840987 259.662308,17.70713 259.212692,17.0306996 C258.762308,16.3534978 258.164615,15.8247713 257.420769,15.4425919 C256.676538,15.0611839 255.828846,14.8093543 254.877308,14.6874888 C253.924615,14.5663946 252.946923,14.5054619 251.942692,14.5054619 L247.166154,14.5054619 L247.166154,25.0745919 L251.735,25.0745919 L251.735,25.0745919 Z" id="Fill-5" sketch:type="MSShapeGroup"></path>
            <path d="M271.258077,8.98680717 L283.253077,8.98680717 C285.364231,8.98680717 287.268462,9.17770404 288.964231,9.55949776 C290.660769,9.94167713 292.114231,10.5664305 293.326154,11.4333722 C294.538077,12.3014709 295.472692,13.4121435 296.130385,14.7657758 C296.787692,16.1197937 297.116538,17.7514798 297.116538,19.6596771 C297.116538,21.7082511 296.735385,23.4263229 295.974615,24.8138924 C295.212308,26.2030045 294.183077,27.3221614 292.885,28.1721345 C291.586923,29.0232646 290.072308,29.639148 288.341538,30.0205561 C286.61,30.4031211 284.776154,30.5932466 282.837308,30.5932466 L277.801154,30.5932466 L277.801154,45.8480269 L271.258077,45.8480269 L271.258077,8.98680717 L271.258077,8.98680717 Z M282.37,25.0745919 C283.443077,25.0745919 284.464231,24.9966906 285.433462,24.8401166 C286.402692,24.6839283 287.268462,24.4066457 288.029615,24.0071121 C288.791154,23.6083498 289.397308,23.0618834 289.847692,22.3669417 C290.297308,21.673157 290.522692,20.7711211 290.522692,19.6596771 C290.522692,18.5840987 290.297308,17.70713 289.847692,17.0306996 C289.397308,16.3534978 288.799615,15.8247713 288.055769,15.4425919 C287.311538,15.0611839 286.463846,14.8093543 285.511923,14.6874888 C284.559615,14.5663946 283.581923,14.5054619 282.577692,14.5054619 L277.801154,14.5054619 L277.801154,25.0745919 L282.37,25.0745919 L282.37,25.0745919 Z" id="Fill-6" sketch:type="MSShapeGroup"></path>
            <path d="M98.6111538,50.873435 L110.62,50.873435 C112.246538,50.873435 113.825,51.0450493 115.355,51.3875067 C116.884231,51.7299641 118.243077,52.2930135 119.431154,53.0762691 C120.618462,53.8595247 121.570769,54.8872825 122.286538,56.1599283 C123.002308,57.432574 123.360769,58.9828879 123.360769,60.8100987 C123.360769,63.3233812 122.653077,65.3707982 121.237692,66.9527354 C119.821538,68.5358296 117.893462,69.6044664 115.452692,70.1590314 L124.679231,85.5283498 L117.258846,85.5283498 L109.252692,70.8443318 L104.761923,70.8443318 L104.761923,85.5283498 L98.6111538,85.5283498 L98.6111538,50.873435 L98.6111538,50.873435 Z M109.79,65.8023408 C110.668846,65.8023408 111.547308,65.7375516 112.426154,65.6068161 C113.305,65.4764664 114.093462,65.2319641 114.793462,64.8729238 C115.493077,64.5138834 116.070385,63.9998117 116.526923,63.3307085 C116.981923,62.6623767 117.21,61.8054619 117.21,60.7611211 C117.21,59.8151211 116.998077,59.0403498 116.575385,58.4360359 C116.152308,57.8324933 115.615,57.3512018 114.964231,56.9921614 C114.313077,56.6331211 113.573077,56.3886188 112.743077,56.2578834 C111.913462,56.1275336 111.108077,56.0619731 110.326923,56.0619731 L104.761923,56.0619731 L104.761923,65.8023408 L109.79,65.8023408 L109.79,65.8023408 Z" id="Fill-7" sketch:type="MSShapeGroup"></path>
            <path d="M128.340385,50.873435 L151.234615,50.873435 L151.234615,56.2578834 L134.491154,56.2578834 L134.491154,65.0684484 L150.356538,65.0684484 L150.356538,70.2566009 L134.491154,70.2566009 L134.491154,80.0459462 L152.113462,80.0459462 L152.113462,85.5283498 L128.340385,85.5283498 L128.340385,50.873435" id="Fill-8" sketch:type="MSShapeGroup"></path>
            <path d="M166.073846,56.2578834 L155.481154,56.2578834 L155.481154,50.873435 L182.817692,50.873435 L182.817692,56.2578834 L172.224231,56.2578834 L172.224231,85.5283498 L166.073846,85.5283498 L166.073846,56.2578834" id="Fill-9" sketch:type="MSShapeGroup"></path>
            <path d="M186.820769,50.873435 L198.829231,50.873435 C200.455769,50.873435 202.034615,51.0450493 203.563846,51.3875067 C205.093462,51.7299641 206.451923,52.2930135 207.640769,53.0762691 C208.827692,53.8595247 209.779615,54.8872825 210.496154,56.1599283 C211.211154,57.432574 211.570385,58.9828879 211.570385,60.8100987 C211.570385,63.3233812 210.863462,65.3707982 209.447308,66.9527354 C208.031538,68.5358296 206.102308,69.6044664 203.661538,70.1590314 L212.887692,85.5283498 L205.468462,85.5283498 L197.461923,70.8443318 L192.971154,70.8443318 L192.971154,85.5283498 L186.820769,85.5283498 L186.820769,50.873435 L186.820769,50.873435 Z M197.998846,65.8023408 C198.877692,65.8023408 199.756538,65.7375516 200.635385,65.6068161 C201.514231,65.4764664 202.303077,65.2319641 203.003077,64.8729238 C203.702308,64.5138834 204.28,63.9998117 204.735769,63.3307085 C205.191923,62.6623767 205.419231,61.8054619 205.419231,60.7611211 C205.419231,59.8151211 205.207692,59.0403498 204.785,58.4360359 C204.360769,57.8324933 203.824615,57.3512018 203.173846,56.9921614 C202.522308,56.6331211 201.782692,56.3886188 200.952308,56.2578834 C200.122692,56.1275336 199.317308,56.0619731 198.536154,56.0619731 L192.971154,56.0619731 L192.971154,65.8023408 L197.998846,65.8023408 L197.998846,65.8023408 Z" id="Fill-10" sketch:type="MSShapeGroup"></path>
            <path d="M216.548846,50.873435 L239.444231,50.873435 L239.444231,56.2578834 L222.700385,56.2578834 L222.700385,65.0684484 L238.565385,65.0684484 L238.565385,70.2566009 L222.700385,70.2566009 L222.700385,80.0459462 L240.323077,80.0459462 L240.323077,85.5283498 L216.548846,85.5283498 L216.548846,50.873435" id="Fill-11" sketch:type="MSShapeGroup"></path>
            <path d="M258.140385,50.873435 L263.461538,50.873435 L278.350385,85.5283498 L271.321154,85.5283498 L268.099231,77.5986099 L253.112692,77.5986099 L249.988462,85.5283498 L243.104615,85.5283498 L258.140385,50.873435 L258.140385,50.873435 Z M265.950769,72.3125022 L260.629615,58.2158296 L255.211923,72.3125022 L265.950769,72.3125022 L265.950769,72.3125022 Z" id="Fill-12" sketch:type="MSShapeGroup"></path>
            <path d="M282.889231,56.2578834 L272.296538,56.2578834 L272.296538,50.873435 L299.633462,50.873435 L299.633462,56.2578834 L289.040769,56.2578834 L289.040769,85.5283498 L282.889231,85.5283498 L282.889231,56.2578834" id="Fill-13" sketch:type="MSShapeGroup"></path>
            <path d="M29.1176923,57.4210045 C29.1176923,62.0326099 32.5411538,63.750296 37.1330769,63.750296 C44.1419231,63.750296 47.7223077,58.6716682 47.8803846,52.7392108 L47.8803846,50.3952287 L41.8073077,50.3952287 C34.0976923,50.3952287 29.1176923,52.5043498 29.1176923,57.4210045" id="Fill-14" sketch:type="MSShapeGroup"></path>
            <path d="M83.6676923,15.2698206 C83.6676923,6.82678027 76.8084615,-0.0389506726 68.3930769,-0.0389506726 C62.2211538,-0.0389506726 56.9057692,3.65403587 54.4980769,8.94515695 L11.7815385,8.94515695 C5.34807692,8.9486278 0.105,14.2058117 0.101153846,20.6569686 L0.101153846,73.8963677 C0.105,80.3479103 5.34807692,85.6070224 11.7815385,85.6093363 L64.8784615,85.6093363 C71.3119231,85.6070224 76.5511538,80.3479103 76.5561538,73.8963677 L76.5561538,28.191417 C80.8211538,25.4721973 83.6676923,20.7036323 83.6676923,15.2698206 L83.6676923,15.2698206 Z M38.3765385,35.6448789 C35.6784615,35.5692915 33.7342308,35.8184215 31.6892308,36.3402063 C29.6442308,36.8650762 27.1976923,37.8426996 24.8992308,39.4454619 L24.7761538,34.916 C26.3530769,33.4327892 28.4457692,32.4015605 30.5384615,31.6117489 C32.6342308,30.8223229 35.0230769,30.358 38.1730769,30.3383318 C48.9184615,30.2480897 53.9503846,35.6448789 53.9503846,45.9432825 L53.9503846,61.6400179 C53.9503846,63.750296 54.185,66.0888789 54.4973077,67.9619821 L49.1080769,67.9619821 C48.7130769,66.3248969 48.2688462,64.054574 48.2688462,62.5004036 L48.1126923,62.5004036 C45.6961538,66.243139 41.6530769,68.9010404 36.1261538,68.9010404 C28.7246154,68.9010404 22.5734615,65.1478924 22.5734615,58.0465291 C22.5734615,45.9432825 36.5888462,45.2456413 45.5465385,45.2456413 L47.8803846,45.2456413 L47.8803846,44.1480807 C47.8803846,38.8457758 44.0503846,35.799139 38.3765385,35.6448789 L38.3765385,35.6448789 Z M68.3930769,28.7833901 C60.9496154,28.7833901 54.9142308,22.7375516 54.9142308,15.2698206 C54.9142308,7.81134529 60.9496154,1.76087892 68.3930769,1.76087892 C75.8315385,1.76087892 81.87,7.81134529 81.87,15.2698206 C81.87,22.7375516 75.8315385,28.7833901 68.3930769,28.7833901 L68.3930769,28.7833901 Z" id="Fill-15" sketch:type="MSShapeGroup"></path>
            <path d="M68.71,26.9318834 L71.5326923,26.9318834 C71.5326923,25.2878565 69.4680769,25.0792197 69.4461538,23.6091211 C69.4303846,22.5235157 69.4461538,17.026843 69.4461538,17.026843 C69.4461538,17.026843 73.9619231,15.3160987 73.9619231,11.0604484 C73.9619231,8.10675336 72.5053846,5.02617937 72.5053846,5.02617937 L68.71,5.02617937 L64.9142308,5.02617937 C64.9142308,5.02617937 63.4580769,8.10675336 63.4580769,11.0604484 C63.4580769,15.3160987 67.9734615,17.026843 67.9734615,17.026843 C67.9734615,17.026843 67.9892308,22.5235157 67.9734615,23.6091211 C67.9519231,25.0792197 65.8869231,25.2878565 65.8869231,26.9318834 L68.71,26.9318834" id="Fill-16" sketch:type="MSShapeGroup"></path>
        </g>
    </g>
</svg>