<?xml version="1.0" encoding="UTF-8" standalone="no"?>
<svg width="1592px" height="413px" viewBox="0 0 1592 413" version="1.1" xmlns="http://www.w3.org/2000/svg" xmlns:xlink="http://www.w3.org/1999/xlink" xmlns:sketch="http://www.bohemiancoding.com/sketch/ns">
    <!-- Generator: Sketch 3.1.1 (8761) - http://www.bohemiancoding.com/sketch -->
    <title>app-cloud</title>
    <desc>Created with Sketch.</desc>
    <defs></defs>
    <g id="Home" stroke="none" stroke-width="1" fill="none" fill-rule="evenodd" sketch:type="MSPage">
        <g id="Desktop-HD" sketch:type="MSArtboardGroup" transform="translate(0.000000, -2197.000000)">
            <g id="SECTION-3" sketch:type="MSLayerGroup" transform="translate(-4.000000, 1748.000000)">
                <g id="app-cloud" transform="translate(-230.774869, 450.000000)" sketch:type="MSShapeGroup">
                    <path d="M506.931466,168.268063 C506.931466,170.502042 505.122513,172.310995 502.888534,172.310995 L490.759738,172.310995 C488.525759,172.310995 486.716806,170.502042 486.716806,168.268063 L486.716806,156.139267 C486.716806,153.905288 488.525759,152.096335 490.759738,152.096335 L502.888534,152.096335 C505.122513,152.096335 506.931466,153.905288 506.931466,156.139267 L506.931466,168.268063" id="Fill-1" fill="#CBCCCB"></path>
                    <path d="M684.97856,201.855497 C684.97856,205.766257 681.811597,208.93322 677.903429,208.93322 L656.675445,208.93322 C652.767277,208.93322 649.600314,205.766257 649.600314,201.855497 L649.600314,180.630105 C649.600314,176.721937 652.767277,173.554974 656.675445,173.554974 L677.903429,173.554974 C681.811597,173.554974 684.97856,176.721937 684.97856,180.630105 L684.97856,201.855497" id="Fill-2" fill="#9E9F9E"></path>
                    <path d="M562.086387,225.286361 C562.086387,227.52034 560.274843,229.329293 558.043455,229.329293 L545.912068,229.329293 C543.680681,229.329293 541.869136,227.52034 541.869136,225.286361 L541.869136,213.157565 C541.869136,210.923586 543.680681,209.114634 545.912068,209.114634 L558.043455,209.114634 C560.274843,209.114634 562.086387,210.923586 562.086387,213.157565 L562.086387,225.286361" id="Fill-3" fill="#CBCCCB"></path>
                    <path d="M391.718272,225.286361 C391.718272,227.52034 389.909319,229.329293 387.67534,229.329293 L375.543953,229.329293 C373.312565,229.329293 371.501021,227.52034 371.501021,225.286361 L371.501021,213.157565 C371.501021,210.923586 373.312565,209.114634 375.543953,209.114634 L387.67534,209.114634 C389.909319,209.114634 391.718272,210.923586 391.718272,213.157565 L391.718272,225.286361" id="Fill-4" fill="#F2F2F1"></path>
                    <path d="M494.315445,291.77445 C494.315445,296.65966 490.352853,300.622251 485.472827,300.622251 L458.934607,300.622251 C454.05199,300.622251 450.09199,296.65966 450.09199,291.77445 L450.09199,265.241414 C450.09199,260.356204 454.05199,256.398796 458.934607,256.398796 L485.472827,256.398796 C490.352853,256.398796 494.315445,260.356204 494.315445,265.241414 L494.315445,291.77445" id="Fill-5" fill="#F2F2F1"></path>
                    <path d="M759.588796,271.215105 C759.588796,273.449084 757.779843,275.260628 755.545864,275.260628 L743.414476,275.260628 C741.183089,275.260628 739.371545,273.449084 739.371545,271.215105 L739.371545,259.086309 C739.371545,256.85233 741.183089,255.043377 743.414476,255.043377 L755.545864,255.043377 C757.779843,255.043377 759.588796,256.85233 759.588796,259.086309 L759.588796,271.215105" id="Fill-6" fill="#CBCCCB"></path>
                    <path d="M626.06212,124.341754 C626.06212,126.573141 624.250576,128.384686 622.019188,128.384686 L609.887801,128.384686 C607.656414,128.384686 605.844869,126.573141 605.844869,124.341754 L605.844869,112.212958 C605.844869,109.978979 607.656414,108.170026 609.887801,108.170026 L622.019188,108.170026 C624.250576,108.170026 626.06212,109.978979 626.06212,112.212958 L626.06212,124.341754" id="Fill-7" fill="#CBCCCB"></path>
                    <path d="M831.573717,197.307199 C831.573717,199.541178 829.764764,201.352723 827.530785,201.352723 L815.399398,201.352723 C813.16801,201.352723 811.359058,199.541178 811.359058,197.307199 L811.359058,185.178403 C811.359058,182.944424 813.16801,181.135471 815.399398,181.135471 L827.530785,181.135471 C829.764764,181.135471 831.573717,182.944424 831.573717,185.178403 L831.573717,197.307199" id="Fill-8" fill="#CBCCCB"></path>
                    <path d="M861.898298,128.129005 C861.898298,130.362984 860.086754,132.174529 857.855366,132.174529 L845.723979,132.174529 C843.49,132.174529 841.681047,130.362984 841.681047,128.129005 L841.681047,116.000209 C841.681047,113.76623 843.49,111.957277 845.723979,111.957277 L857.855366,111.957277 C860.086754,111.957277 861.898298,113.76623 861.898298,116.000209 L861.898298,128.129005" id="Fill-9" fill="#CBCCCB"></path>
                    <path d="M1566.08115,128.129005 C1566.08115,130.362984 1564.2722,132.174529 1562.03822,132.174529 L1549.90942,132.174529 C1547.67545,132.174529 1545.86649,130.362984 1545.86649,128.129005 L1545.86649,116.000209 C1545.86649,113.76623 1547.67545,111.957277 1549.90942,111.957277 L1562.03822,111.957277 C1564.2722,111.957277 1566.08115,113.76623 1566.08115,116.000209 L1566.08115,128.129005" id="Fill-10" fill="#CBCCCB"></path>
                    <path d="M691.63644,24.8640052 C691.63644,28.3523298 688.811571,31.1823822 685.320654,31.1823822 L666.365524,31.1823822 C662.877199,31.1823822 660.049738,28.3523298 660.049738,24.8640052 L660.049738,5.91146597 C660.049738,2.42054974 662.877199,-0.406910995 666.365524,-0.406910995 L685.320654,-0.406910995 C688.811571,-0.406910995 691.63644,2.42054974 691.63644,5.91146597 L691.63644,24.8640052" id="Fill-11" fill="#CBCCCB"></path>
                    <path d="M321.941414,144.124503 C321.941414,146.358482 320.132461,148.170026 317.898482,148.170026 L305.769686,148.170026 C303.535707,148.170026 301.726754,146.358482 301.726754,144.124503 L301.726754,131.995707 C301.726754,129.761728 303.535707,127.952775 305.769686,127.952775 L317.898482,127.952775 C320.132461,127.952775 321.941414,129.761728 321.941414,131.995707 L321.941414,144.124503" id="Fill-12" fill="#CBCCCB"></path>
                    <path d="M506.856309,116.062408 C506.856309,120.530366 503.238403,124.150864 498.770445,124.150864 L474.510262,124.150864 C470.042304,124.150864 466.42699,120.530366 466.42699,116.062408 L466.42699,91.8048168 C466.42699,87.3368586 470.042304,83.7189529 474.510262,83.7189529 L498.770445,83.7189529 C503.238403,83.7189529 506.856309,87.3368586 506.856309,91.8048168 L506.856309,116.062408" id="Fill-13" fill="#CBCCCB"></path>
                    <path d="M1036.78102,184.214319 C1036.78102,186.448298 1034.96948,188.259843 1032.73809,188.259843 L1020.6067,188.259843 C1018.37272,188.259843 1016.56377,186.448298 1016.56377,184.214319 L1016.56377,172.085524 C1016.56377,169.851545 1018.37272,168.042592 1020.6067,168.042592 L1032.73809,168.042592 C1034.96948,168.042592 1036.78102,169.851545 1036.78102,172.085524 L1036.78102,184.214319" id="Fill-14" fill="#F2F2F1"></path>
                    <path d="M1207.24503,213.256047 C1207.24503,215.490026 1205.43607,217.298979 1203.20209,217.298979 L1191.07071,217.298979 C1188.83932,217.298979 1187.03037,215.490026 1187.03037,213.256047 L1187.03037,201.127251 C1187.03037,198.893272 1188.83932,197.081728 1191.07071,197.081728 L1203.20209,197.081728 C1205.43607,197.081728 1207.24503,198.893272 1207.24503,201.127251 L1207.24503,213.256047" id="Fill-16" fill="#9E9F9E"></path>
                    <path d="M1091.93335,241.232618 C1091.93335,243.466597 1090.1244,245.278141 1087.89042,245.278141 L1075.76162,245.278141 C1073.52764,245.278141 1071.71869,243.466597 1071.71869,241.232618 L1071.71869,229.103822 C1071.71869,226.872435 1073.52764,225.06089 1075.76162,225.06089 L1087.89042,225.06089 C1090.1244,225.06089 1091.93335,226.872435 1091.93335,229.103822 L1091.93335,241.232618" id="Fill-17" fill="#CBCCCB"></path>
                    <path d="M921.565236,241.232618 C921.565236,243.466597 919.756283,245.278141 917.522304,245.278141 L905.393508,245.278141 C903.159529,245.278141 901.350576,243.466597 901.350576,241.232618 L901.350576,229.103822 C901.350576,226.872435 903.159529,225.06089 905.393508,225.06089 L917.522304,225.06089 C919.756283,225.06089 921.565236,226.872435 921.565236,229.103822 L921.565236,241.232618" id="Fill-18" fill="#CBCCCB"></path>
                    <path d="M949.362984,158.733482 C949.362984,162.641649 946.193429,165.811204 942.287853,165.811204 L921.062461,165.811204 C917.151702,165.811204 913.984738,162.641649 913.984738,158.733482 L913.984738,137.505497 C913.984738,133.599921 917.151702,130.430366 921.062461,130.430366 L942.287853,130.430366 C946.193429,130.430366 949.362984,133.599921 949.362984,137.505497 L949.362984,158.733482" id="Fill-19" fill="#CBCCCB"></path>
                    <path d="M1720.14128,336.972435 C1720.14128,340.603298 1717.1972,343.544791 1713.56893,343.544791 L1693.85704,343.544791 C1690.22877,343.544791 1687.28728,340.603298 1687.28728,336.972435 L1687.28728,317.263141 C1687.28728,313.634869 1690.22877,310.693377 1693.85704,310.693377 L1713.56893,310.693377 C1717.1972,310.693377 1720.14128,313.634869 1720.14128,317.263141 L1720.14128,336.972435" id="Fill-20" fill="#9E9F9E"></path>
                    <path d="M1289.43576,287.161361 C1289.43576,289.39534 1287.62681,291.206885 1285.39283,291.206885 L1273.26403,291.206885 C1271.03264,291.206885 1269.2211,289.39534 1269.2211,287.161361 L1269.2211,275.032565 C1269.2211,272.798586 1271.03264,270.989634 1273.26403,270.989634 L1285.39283,270.989634 C1287.62681,270.989634 1289.43576,272.798586 1289.43576,275.032565 L1289.43576,287.161361" id="Fill-21" fill="#F2F2F1"></path>
                    <path d="M1197.1377,311.89322 C1197.1377,314.127199 1195.32874,315.936152 1193.09217,315.936152 L1180.96338,315.936152 C1178.73199,315.936152 1176.92045,314.127199 1176.92045,311.89322 L1176.92045,299.764424 C1176.92045,297.530445 1178.73199,295.721492 1180.96338,295.721492 L1193.09217,295.721492 C1195.32874,295.721492 1197.1377,297.530445 1197.1377,299.764424 L1197.1377,311.89322" id="Fill-22" fill="#CBCCCB"></path>
                    <path d="M1125.90908,130.28801 C1125.90908,132.52199 1124.10013,134.333534 1121.86615,134.333534 L1109.73736,134.333534 C1107.50338,134.333534 1105.69442,132.52199 1105.69442,130.28801 L1105.69442,118.159215 C1105.69442,115.925236 1107.50338,114.116283 1109.73736,114.116283 L1121.86615,114.116283 C1124.10013,114.116283 1125.90908,115.925236 1125.90908,118.159215 L1125.90908,130.28801" id="Fill-23" fill="#CBCCCB"></path>
                    <path d="M1491.24545,90.2880105 C1491.24545,92.5219895 1489.43649,94.333534 1487.2051,94.333534 L1475.07113,94.333534 C1472.83974,94.333534 1471.03079,92.5219895 1471.03079,90.2880105 L1471.03079,78.1592147 C1471.03079,75.9252356 1472.83974,74.1162827 1475.07113,74.1162827 L1487.2051,74.1162827 C1489.43649,74.1162827 1491.24545,75.9252356 1491.24545,78.1592147 L1491.24545,90.2880105" id="Fill-24" fill="#CBCCCB"></path>
                    <path d="M1361.42327,213.256047 C1361.42327,215.490026 1359.61173,217.298979 1357.37775,217.298979 L1345.24895,217.298979 C1343.01497,217.298979 1341.20602,215.490026 1341.20602,213.256047 L1341.20602,201.127251 C1341.20602,198.893272 1343.01497,197.081728 1345.24895,197.081728 L1357.37775,197.081728 C1359.61173,197.081728 1361.42327,198.893272 1361.42327,201.127251 L1361.42327,213.256047" id="Fill-25" fill="#CBCCCB"></path>
                    <path d="M1372.81346,300.497853 C1372.81346,302.731832 1371.0045,304.543377 1368.77312,304.543377 L1356.64173,304.543377 C1354.41034,304.543377 1352.5962,302.731832 1352.5962,300.497853 L1352.5962,288.369058 C1352.5962,286.135079 1354.41034,284.326126 1356.64173,284.326126 L1368.77312,284.326126 C1371.0045,284.326126 1372.81346,286.135079 1372.81346,288.369058 L1372.81346,300.497853" id="Fill-26" fill="#9E9F9E"></path>
                    <path d="M1421.74526,124.075262 C1421.74526,126.309241 1419.93631,128.120785 1417.69974,128.120785 L1405.57353,128.120785 C1403.33696,128.120785 1401.52801,126.309241 1401.52801,124.075262 L1401.52801,111.946466 C1401.52801,109.712487 1403.33696,107.903534 1405.57353,107.903534 L1417.69974,107.903534 C1419.93631,107.903534 1421.74526,109.712487 1421.74526,111.946466 L1421.74526,124.075262" id="Fill-27" fill="#CBCCCB"></path>
                    <path d="M1232.51335,132.094188 C1232.51335,135.445157 1229.8051,138.161178 1226.45154,138.161178 L1208.25576,138.161178 C1204.90738,138.161178 1202.19136,135.445157 1202.19136,132.094188 L1202.19136,113.898403 C1202.19136,110.550026 1204.90738,107.834005 1208.25576,107.834005 L1226.45154,107.834005 C1229.8051,107.834005 1232.51335,110.550026 1232.51335,113.898403 L1232.51335,132.094188" id="Fill-28" fill="#CBCCCB"></path>
                    <path d="M1010.51233,111.630733 C1010.51233,112.88767 1009.49641,113.906178 1008.23948,113.906178 L1001.41573,113.906178 C1000.1588,113.906178 999.14288,112.88767 999.14288,111.630733 L999.14288,104.80699 C999.14288,103.552644 1000.1588,102.534136 1001.41573,102.534136 L1008.23948,102.534136 C1009.49641,102.534136 1010.51233,103.552644 1010.51233,104.80699 L1010.51233,111.630733" id="Fill-30" fill="#CBCCCB"></path>
                    <path d="M551.979058,376.445366 C551.979058,378.679346 550.167513,380.49089 547.933534,380.49089 L535.804738,380.49089 C533.570759,380.49089 531.761806,378.679346 531.761806,376.445366 L531.761806,364.316571 C531.761806,362.085183 533.570759,360.273639 535.804738,360.273639 L547.933534,360.273639 C550.167513,360.273639 551.979058,362.085183 551.979058,364.316571 L551.979058,376.445366" id="Fill-31" fill="#CBCCCB"></path>
                    <path d="M406.151021,371.420209 C406.151021,373.236937 404.681571,374.708979 402.867435,374.708979 L393.011492,374.708979 C391.197356,374.708979 389.727906,373.236937 389.727906,371.420209 L389.727906,361.566859 C389.727906,359.752723 391.197356,358.283272 393.011492,358.283272 L402.867435,358.283272 C404.681571,358.283272 406.151021,359.752723 406.151021,361.566859 L406.151021,371.420209" id="Fill-34" fill="#9E9F9E"></path>
                    <path d="M1552.78668,186.732173 C1552.78668,188.96356 1550.97513,190.775105 1548.74374,190.775105 L1536.61236,190.775105 C1534.37838,190.775105 1532.56942,188.96356 1532.56942,186.732173 L1532.56942,174.603377 C1532.56942,172.369398 1534.37838,170.557853 1536.61236,170.557853 L1548.74374,170.557853 C1550.97513,170.557853 1552.78668,172.369398 1552.78668,174.603377 L1552.78668,186.732173" id="Fill-38" fill="#9E9F9E"></path>
                    <path d="M759.588796,386.555288 C759.588796,388.789267 757.779843,390.59822 755.545864,390.59822 L743.414476,390.59822 C741.183089,390.59822 739.371545,388.789267 739.371545,386.555288 L739.371545,374.426492 C739.371545,372.192513 741.183089,370.38356 743.414476,370.38356 L755.545864,370.38356 C757.779843,370.38356 759.588796,372.192513 759.588796,374.426492 L759.588796,386.555288" id="Fill-39" fill="#E4E5E3"></path>
                    <path d="M861.898298,366.338037 C861.898298,368.572016 860.086754,370.38356 857.855366,370.38356 L845.723979,370.38356 C843.49,370.38356 841.681047,368.572016 841.681047,366.338037 L841.681047,354.209241 C841.681047,351.975262 843.49,350.166309 845.723979,350.166309 L857.855366,350.166309 C860.086754,350.166309 861.898298,351.975262 861.898298,354.209241 L861.898298,366.338037" id="Fill-42" fill="#F2F2F1"></path>
                    <path d="M697.612723,351.324764 C697.612723,353.556152 695.80377,355.367696 693.569791,355.367696 L681.440995,355.367696 C679.207016,355.367696 677.398063,353.556152 677.398063,351.324764 L677.398063,339.193377 C677.398063,336.96199 679.207016,335.150445 681.440995,335.150445 L693.569791,335.150445 C695.80377,335.150445 697.612723,336.96199 697.612723,339.193377 L697.612723,351.324764" id="Fill-43" fill="#CBCCCB"></path>
                    <path d="M315.301675,373.166963 C315.301675,376.795236 312.360183,379.736728 308.731911,379.736728 L289.020026,379.736728 C285.389162,379.736728 282.452853,376.795236 282.452853,373.166963 L282.452853,353.455079 C282.452853,349.826806 285.389162,346.887906 289.020026,346.887906 L308.731911,346.887906 C312.360183,346.887906 315.301675,349.826806 315.301675,353.455079 L315.301675,373.166963" id="Fill-45" fill="#CBCCCB"></path>
                    <path d="M476.018586,327.474058 C476.018586,329.708037 474.207042,331.519581 471.975654,331.519581 L459.844267,331.519581 C457.610288,331.519581 455.801335,329.708037 455.801335,327.474058 L455.801335,315.345262 C455.801335,313.111283 457.610288,311.30233 459.844267,311.30233 L471.975654,311.30233 C474.207042,311.30233 476.018586,313.111283 476.018586,315.345262 L476.018586,327.474058" id="Fill-46" fill="#CBCCCB"></path>
                    <path d="M445.694005,422.768037 C445.694005,424.999424 443.885052,426.810969 441.651073,426.810969 L429.519686,426.810969 C427.285707,426.810969 425.479346,424.999424 425.479346,422.768037 L425.479346,410.636649 C425.479346,408.405262 427.285707,406.593717 429.519686,406.593717 L441.651073,406.593717 C443.885052,406.593717 445.694005,408.405262 445.694005,410.636649 L445.694005,422.768037" id="Fill-47" fill="#CBCCCB"></path>
                    <path d="M1081.82602,392.394215 C1081.82602,394.628194 1080.01448,396.437147 1077.7805,396.437147 L1065.6517,396.437147 C1063.41772,396.437147 1061.60877,394.628194 1061.60877,392.394215 L1061.60877,380.265419 C1061.60877,378.03144 1063.41772,376.222487 1065.6517,376.222487 L1077.7805,376.222487 C1080.01448,376.222487 1081.82602,378.03144 1081.82602,380.265419 L1081.82602,392.394215" id="Fill-48" fill="#CBCCCB"></path>
                    <path d="M1294.04366,392.842565 C1294.04366,394.376806 1292.79709,395.623377 1291.26026,395.623377 L1282.9256,395.623377 C1281.38877,395.623377 1280.1422,394.376806 1280.1422,392.842565 L1280.1422,384.502723 C1280.1422,382.968482 1281.38877,381.724503 1282.9256,381.724503 L1291.26026,381.724503 C1292.79709,381.724503 1294.04366,382.968482 1294.04366,384.502723 L1294.04366,392.842565" id="Fill-55" fill="#E4E5E3"></path>
                    <path d="M1391.74526,382.284293 C1391.74526,384.518272 1389.93631,386.329817 1387.69974,386.329817 L1375.57353,386.329817 C1373.33696,386.329817 1371.52801,384.518272 1371.52801,382.284293 L1371.52801,370.155497 C1371.52801,367.921518 1373.33696,366.112565 1375.57353,366.112565 L1387.69974,366.112565 C1389.93631,366.112565 1391.74526,367.921518 1391.74526,370.155497 L1391.74526,382.284293" id="Fill-58" fill="#CBCCCB"></path>
                    <path d="M1365.70463,129.06199 C1365.70463,131.295969 1363.89827,133.104921 1361.6617,133.104921 L1349.53291,133.104921 C1347.29893,133.104921 1345.48997,131.295969 1345.48997,129.06199 L1345.48997,116.933194 C1345.48997,114.699215 1347.29893,112.890262 1349.53291,112.890262 L1361.6617,112.890262 C1363.89827,112.890262 1365.70463,114.699215 1365.70463,116.933194 L1365.70463,129.06199" id="Fill-59" fill="#CBCCCB"></path>
                    <path d="M1427.68071,402.504136 C1427.68071,404.735524 1425.87175,406.547068 1423.63777,406.547068 L1411.50898,406.547068 C1409.27759,406.547068 1407.46346,404.735524 1407.46346,402.504136 L1407.46346,390.372749 C1407.46346,388.141361 1409.27759,386.329817 1411.50898,386.329817 L1423.63777,386.329817 C1425.87175,386.329817 1427.68071,388.141361 1427.68071,390.372749 L1427.68071,402.504136" id="Fill-60" fill="#CBCCCB"></path>
                    <path d="M1622.23385,402.504136 C1622.23385,404.735524 1620.4249,406.547068 1618.19092,406.547068 L1606.06212,406.547068 C1603.83073,406.547068 1602.01919,404.735524 1602.01919,402.504136 L1602.01919,390.372749 C1602.01919,388.141361 1603.83073,386.329817 1606.06212,386.329817 L1618.19092,386.329817 C1620.4249,386.329817 1622.23385,388.141361 1622.23385,390.372749 L1622.23385,402.504136" id="Fill-61" fill="#CBCCCB"></path>
                    <path d="M1529.99021,382.284293 C1529.99021,384.518272 1528.17866,386.329817 1525.94469,386.329817 L1513.81589,386.329817 C1511.58191,386.329817 1509.77296,384.518272 1509.77296,382.284293 L1509.77296,370.155497 C1509.77296,367.921518 1511.58191,366.112565 1513.81589,366.112565 L1525.94469,366.112565 C1528.17866,366.112565 1529.99021,367.921518 1529.99021,370.155497 L1529.99021,382.284293" id="Fill-63" fill="#CBCCCB"></path>
                    <path d="M1005.86555,343.422906 C1005.86555,345.656885 1004.0566,347.465838 1001.82262,347.465838 L989.69123,347.465838 C987.457251,347.465838 985.648298,345.656885 985.648298,343.422906 L985.648298,331.29411 C985.648298,329.060131 987.457251,327.251178 989.69123,327.251178 L1001.82262,327.251178 C1004.0566,327.251178 1005.86555,329.060131 1005.86555,331.29411 L1005.86555,343.422906" id="Fill-65" fill="#CBCCCB"></path>
                    <path d="M1771.28586,168.268063 C1771.28586,170.502042 1769.47432,172.310995 1767.24293,172.310995 L1755.11414,172.310995 C1752.88275,172.310995 1751.06861,170.502042 1751.06861,168.268063 L1751.06861,156.139267 C1751.06861,153.905288 1752.88275,152.096335 1755.11414,152.096335 L1767.24293,152.096335 C1769.47432,152.096335 1771.28586,153.905288 1771.28586,156.139267 L1771.28586,168.268063" id="Fill-67" fill="#F2F2F1"></path>
                    <path d="M1816.33086,138.236335 C1816.33086,140.470314 1814.52191,142.281859 1812.28534,142.281859 L1800.15914,142.281859 C1797.92516,142.281859 1796.11361,140.470314 1796.11361,138.236335 L1796.11361,126.107539 C1796.11361,123.876152 1797.92516,122.064607 1800.15914,122.064607 L1812.28534,122.064607 C1814.52191,122.064607 1816.33086,123.876152 1816.33086,126.107539 L1816.33086,138.236335" id="Fill-68" fill="#F2F2F1"></path>
                    <path d="M1826.43819,225.286361 C1826.43819,227.52034 1824.62924,229.329293 1822.39526,229.329293 L1810.26647,229.329293 C1808.03508,229.329293 1806.22353,227.52034 1806.22353,225.286361 L1806.22353,213.157565 C1806.22353,210.923586 1808.03508,209.114634 1810.26647,209.114634 L1822.39526,209.114634 C1824.62924,209.114634 1826.43819,210.923586 1826.43819,213.157565 L1826.43819,225.286361" id="Fill-69" fill="#F2F2F1"></path>
                    <path d="M1656.07267,225.286361 C1656.07267,227.52034 1654.26372,229.329293 1652.02715,229.329293 L1639.89835,229.329293 C1637.66437,229.329293 1635.85542,227.52034 1635.85542,225.286361 L1635.85542,213.157565 C1635.85542,210.923586 1637.66437,209.114634 1639.89835,209.114634 L1652.02715,209.114634 C1654.26372,209.114634 1656.07267,210.923586 1656.07267,213.157565 L1656.07267,225.286361" id="Fill-70" fill="#F2F2F1"></path>
                    <path d="M1740.37039,89.2650262 C1740.37039,91.4990052 1738.56144,93.3105497 1736.33005,93.3105497 L1724.19607,93.3105497 C1721.96469,93.3105497 1720.15832,91.4990052 1720.15832,89.2650262 L1720.15832,77.1362304 C1720.15832,74.9022513 1721.96469,73.0932984 1724.19607,73.0932984 L1736.33005,73.0932984 C1738.56144,73.0932984 1740.37039,74.9022513 1740.37039,77.1362304 L1740.37039,89.2650262" id="Fill-71" fill="#F2F2F1"></path>
                    <path d="M1710.0484,184.559005 C1710.0484,186.790393 1708.23686,188.601937 1706.00547,188.601937 L1693.87408,188.601937 C1691.6401,188.601937 1689.83115,186.790393 1689.83115,184.559005 L1689.83115,172.427618 C1689.83115,170.19623 1691.6401,168.384686 1693.87408,168.384686 L1706.00547,168.384686 C1708.23686,168.384686 1710.0484,170.19623 1710.0484,172.427618 L1710.0484,184.559005" id="Fill-72" fill="#F2F2F1"></path>
                    <path d="M1816.33086,376.445366 C1816.33086,378.679346 1814.52191,380.49089 1812.28534,380.49089 L1800.15914,380.49089 C1797.92516,380.49089 1796.11361,378.679346 1796.11361,376.445366 L1796.11361,364.316571 C1796.11361,362.085183 1797.92516,360.273639 1800.15914,360.273639 L1812.28534,360.273639 C1814.52191,360.273639 1816.33086,362.085183 1816.33086,364.316571 L1816.33086,376.445366" id="Fill-73" fill="#F2F2F1"></path>
                    <path d="M1676.28733,376.445366 C1676.28733,378.679346 1674.47838,380.49089 1672.2444,380.49089 L1660.1156,380.49089 C1657.88162,380.49089 1656.07267,378.679346 1656.07267,376.445366 L1656.07267,364.316571 C1656.07267,362.085183 1657.88162,360.273639 1660.1156,360.273639 L1672.2444,360.273639 C1674.47838,360.273639 1676.28733,362.085183 1676.28733,364.316571 L1676.28733,376.445366" id="Fill-75" fill="#F2F2F1"></path>
                    <path d="M1586.29581,382.333534 C1586.29581,384.567513 1584.48686,386.379058 1582.25547,386.379058 L1570.12149,386.379058 C1567.8901,386.379058 1566.08115,384.567513 1566.08115,382.333534 L1566.08115,370.204738 C1566.08115,367.970759 1567.8901,366.161806 1570.12149,366.161806 L1582.25547,366.161806 C1584.48686,366.161806 1586.29581,367.970759 1586.29581,370.204738 L1586.29581,382.333534" id="Fill-77" fill="#F2F2F1"></path>
                    <path d="M1740.37039,327.474058 C1740.37039,329.708037 1738.56144,331.519581 1736.33005,331.519581 L1724.19607,331.519581 C1721.96469,331.519581 1720.15832,329.708037 1720.15832,327.474058 L1720.15832,315.345262 C1720.15832,313.111283 1721.96469,311.30233 1724.19607,311.30233 L1736.33005,311.30233 C1738.56144,311.30233 1740.37039,313.111283 1740.37039,315.345262 L1740.37039,327.474058" id="Fill-78" fill="#F2F2F1"></path>
                    <path d="M1710.0484,422.768037 C1710.0484,424.999424 1708.23686,426.810969 1706.00547,426.810969 L1693.87408,426.810969 C1691.6401,426.810969 1689.83115,424.999424 1689.83115,422.768037 L1689.83115,410.636649 C1689.83115,408.405262 1691.6401,406.593717 1693.87408,406.593717 L1706.00547,406.593717 C1708.23686,406.593717 1710.0484,408.405262 1710.0484,410.636649 L1710.0484,422.768037" id="Fill-79" fill="#F2F2F1"></path>
                    <path d="M1398.80484,197.307199 C1398.80484,199.541178 1396.99589,201.352723 1394.76191,201.352723 L1382.63312,201.352723 C1380.40173,201.352723 1378.59018,199.541178 1378.59018,197.307199 L1378.59018,185.178403 C1378.59018,182.944424 1380.40173,181.135471 1382.63312,181.135471 L1394.76191,181.135471 C1396.99589,181.135471 1398.80484,182.944424 1398.80484,185.178403 L1398.80484,197.307199" id="Fill-80" fill="#F2F2F1"></path>
                    <path d="M1421.16277,47.1275654 C1421.16277,51.035733 1417.99063,54.205288 1414.08505,54.205288 L1392.85707,54.205288 C1388.94631,54.205288 1385.78194,51.035733 1385.78194,47.1275654 L1385.78194,25.8995812 C1385.78194,21.9914136 1388.94631,18.8244503 1392.85707,18.8244503 L1414.08505,18.8244503 C1417.99063,18.8244503 1421.16277,21.9914136 1421.16277,25.8995812 L1421.16277,47.1275654" id="Fill-81" fill="#F2F2F1"></path>
                    <path d="M1604.01215,184.214319 C1604.01215,186.448298 1602.20319,188.259843 1599.97181,188.259843 L1587.83783,188.259843 C1585.60644,188.259843 1583.7949,186.448298 1583.7949,184.214319 L1583.7949,172.085524 C1583.7949,169.851545 1585.60644,168.042592 1587.83783,168.042592 L1599.97181,168.042592 C1602.20319,168.042592 1604.01215,169.851545 1604.01215,172.085524 L1604.01215,184.214319" id="Fill-82" fill="#F2F2F1"></path>
                    <path d="M1488.79895,241.232618 C1488.79895,243.466597 1486.98741,245.278141 1484.75343,245.278141 L1472.62723,245.278141 C1470.39325,245.278141 1468.5817,243.466597 1468.5817,241.232618 L1468.5817,229.103822 C1468.5817,226.872435 1470.39325,225.06089 1472.62723,225.06089 L1484.75343,225.06089 C1486.98741,225.06089 1488.79895,226.872435 1488.79895,229.103822 L1488.79895,241.232618" id="Fill-83" fill="#F2F2F1"></path>
                    <path d="M1509.0162,154.185183 C1509.0162,156.419162 1507.20466,158.228115 1504.97068,158.228115 L1492.84448,158.228115 C1490.60791,158.228115 1488.79895,156.419162 1488.79895,154.185183 L1488.79895,142.056387 C1488.79895,139.822408 1490.60791,138.010864 1492.84448,138.010864 L1504.97068,138.010864 C1507.20466,138.010864 1509.0162,139.822408 1509.0162,142.056387 L1509.0162,154.185183" id="Fill-84" fill="#F2F2F1"></path>
                    <path d="M1604.01215,325.141597 C1604.01215,327.375576 1602.20319,329.18712 1599.97181,329.18712 L1587.83783,329.18712 C1585.60644,329.18712 1583.7949,327.375576 1583.7949,325.141597 L1583.7949,313.012801 C1583.7949,310.778822 1585.60644,308.969869 1587.83783,308.969869 L1599.97181,308.969869 C1602.20319,308.969869 1604.01215,310.778822 1604.01215,313.012801 L1604.01215,325.141597" id="Fill-85" fill="#F2F2F1"></path>
                    <path d="M1713.1428,180.28801 C1713.1428,182.52199 1711.33126,184.333534 1709.09987,184.333534 L1696.96848,184.333534 C1694.73709,184.333534 1692.92555,182.52199 1692.92555,180.28801 L1692.92555,168.159215 C1692.92555,165.925236 1694.73709,164.116283 1696.96848,164.116283 L1709.09987,164.116283 C1711.33126,164.116283 1713.1428,165.925236 1713.1428,168.159215 L1713.1428,180.28801" id="Fill-86" fill="#F2F2F1"></path>
                    <path d="M1703.03288,287.161361 C1703.03288,289.39534 1701.22393,291.206885 1698.99254,291.206885 L1686.86115,291.206885 C1684.62976,291.206885 1682.81563,289.39534 1682.81563,287.161361 L1682.81563,275.032565 C1682.81563,272.798586 1684.62976,270.989634 1686.86115,270.989634 L1698.99254,270.989634 C1701.22393,270.989634 1703.03288,272.798586 1703.03288,275.032565 L1703.03288,287.161361" id="Fill-87" fill="#F2F2F1"></path>
                    <path d="M1449.30003,290.058796 C1449.30003,291.315733 1448.27893,292.334241 1447.02458,292.334241 L1440.20084,292.334241 C1438.94649,292.334241 1437.92539,291.315733 1437.92539,290.058796 L1437.92539,283.237644 C1437.92539,281.980707 1438.94649,280.962199 1440.20084,280.962199 L1447.02458,280.962199 C1448.27893,280.962199 1449.30003,281.980707 1449.30003,283.237644 L1449.30003,290.058796" id="Fill-88" fill="#F2F2F1"></path>
                    <path d="M276.974162,325.141597 C276.974162,327.375576 275.165209,329.18712 272.933822,329.18712 L260.799843,329.18712 C258.568455,329.18712 256.759503,327.375576 256.759503,325.141597 L256.759503,313.012801 C256.759503,310.778822 258.568455,308.969869 260.799843,308.969869 L272.933822,308.969869 C275.165209,308.969869 276.974162,310.778822 276.974162,313.012801 L276.974162,325.141597" id="Fill-99" fill="#F2F2F1"></path>
                    <path d="M379.85123,290.51233 C379.85123,293.023613 377.816806,295.06322 375.302932,295.06322 L361.658037,295.06322 C359.144162,295.06322 357.107147,293.023613 357.107147,290.51233 L357.107147,276.867435 C357.107147,274.35356 359.144162,272.316545 361.658037,272.316545 L375.302932,272.316545 C377.816806,272.316545 379.85123,274.35356 379.85123,276.867435 L379.85123,290.51233" id="Fill-100" fill="#F2F2F1"></path>
                    <path d="M641.44966,259.184791 C641.44966,261.41877 639.638115,263.230314 637.404136,263.230314 L625.27534,263.230314 C623.043953,263.230314 621.232408,261.41877 621.232408,259.184791 L621.232408,247.055995 C621.232408,244.822016 623.043953,243.013063 625.27534,243.013063 L637.404136,243.013063 C639.638115,243.013063 641.44966,244.822016 641.44966,247.055995 L641.44966,259.184791" id="Fill-101" fill="#F2F2F1"></path>
                    <path d="M894.104398,221.207147 C894.104398,223.438534 892.295445,225.250079 890.061466,225.250079 L877.93267,225.250079 C875.698691,225.250079 873.887147,223.438534 873.887147,221.207147 L873.887147,209.075759 C873.887147,206.844372 875.698691,205.032827 877.93267,205.032827 L890.061466,205.032827 C892.295445,205.032827 894.104398,206.844372 894.104398,209.075759 L894.104398,221.207147" id="Fill-102" fill="#CBCCCB"></path>
                    <path d="M1218.73887,184.525314 C1218.73887,186.199503 1217.38346,187.557513 1215.70668,187.557513 L1206.60749,187.557513 C1204.93589,187.557513 1203.57529,186.199503 1203.57529,184.525314 L1203.57529,175.428717 C1203.57529,173.754529 1204.93589,172.396518 1206.60749,172.396518 L1215.70668,172.396518 C1217.38346,172.396518 1218.73887,173.754529 1218.73887,175.428717 L1218.73887,184.525314" id="Fill-103" fill="#CBCCCB"></path>
                    <path d="M1175.08558,277.406492 C1175.08558,280.477565 1172.59762,282.968115 1169.52654,282.968115 L1152.84945,282.968115 C1149.77838,282.968115 1147.29042,280.477565 1147.29042,277.406492 L1147.29042,260.729398 C1147.29042,257.658325 1149.77838,255.170366 1152.84945,255.170366 L1169.52654,255.170366 C1172.59762,255.170366 1175.08558,257.658325 1175.08558,260.729398 L1175.08558,277.406492" id="Fill-104" fill="#9E9F9E"></path>
                    <path d="M1507.33165,250.489895 C1507.33165,252.723874 1505.5201,254.532827 1503.28872,254.532827 L1491.15733,254.532827 C1488.92594,254.532827 1487.1144,252.723874 1487.1144,250.489895 L1487.1144,238.361099 C1487.1144,236.12712 1488.92594,234.318168 1491.15733,234.318168 L1503.28872,234.318168 C1505.5201,234.318168 1507.33165,236.12712 1507.33165,238.361099 L1507.33165,250.489895" id="Fill-105" fill="#9E9F9E"></path>
                    <path d="M1030.07649,251.77534 C1030.07649,254.006728 1028.26495,255.818272 1026.03356,255.818272 L1013.90217,255.818272 C1011.66819,255.818272 1009.85924,254.006728 1009.85924,251.77534 L1009.85924,239.646545 C1009.85924,237.412565 1011.66819,235.601021 1013.90217,235.601021 L1026.03356,235.601021 C1028.26495,235.601021 1030.07649,237.412565 1030.07649,239.646545 L1030.07649,251.77534" id="Fill-106" fill="#9E9F9E"></path>
                    <path d="M683.838246,322.770262 C683.838246,325.56144 681.573168,327.826518 678.78199,327.826518 L663.620995,327.826518 C660.829817,327.826518 658.56733,325.56144 658.56733,322.770262 L658.56733,307.609267 C658.56733,304.818089 660.829817,302.555602 663.620995,302.555602 L678.78199,302.555602 C681.573168,302.555602 683.838246,304.818089 683.838246,307.609267 L683.838246,322.770262" id="Fill-107" fill="#CBCCCB"></path>
                    <path d="M546.451126,326.437408 C546.451126,328.671387 544.639581,330.482932 542.408194,330.482932 L530.279398,330.482932 C528.045419,330.482932 526.236466,328.671387 526.236466,326.437408 L526.236466,314.308613 C526.236466,312.077225 528.045419,310.265681 530.279398,310.265681 L542.408194,310.265681 C544.639581,310.265681 546.451126,312.077225 546.451126,314.308613 L546.451126,326.437408" id="Fill-108" fill="#9E9F9E"></path>
                    <path d="M1517.13092,322.314215 C1517.13092,324.548194 1515.32196,326.359738 1513.08798,326.359738 L1500.9566,326.359738 C1498.72262,326.359738 1496.91366,324.548194 1496.91366,322.314215 L1496.91366,310.185419 C1496.91366,307.95144 1498.72262,306.142487 1500.9566,306.142487 L1513.08798,306.142487 C1515.32196,306.142487 1517.13092,307.95144 1517.13092,310.185419 L1517.13092,322.314215" id="Fill-109" fill="#CBCCCB"></path>
                    <path d="M1216.34162,342.383665 C1216.34162,344.617644 1214.53267,346.429188 1212.29869,346.429188 L1200.1673,346.429188 C1197.93592,346.429188 1196.12437,344.617644 1196.12437,342.383665 L1196.12437,330.254869 C1196.12437,328.023482 1197.93592,326.211937 1200.1673,326.211937 L1212.29869,326.211937 C1214.53267,326.211937 1216.34162,328.023482 1216.34162,330.254869 L1216.34162,342.383665" id="Fill-110" fill="#CBCCCB"></path>
                    <path d="M1739.41149,164.341754 C1739.41149,166.573141 1737.59995,168.384686 1735.36856,168.384686 L1723.23976,168.384686 C1721.00579,168.384686 1719.19683,166.573141 1719.19683,164.341754 L1719.19683,152.212958 C1719.19683,149.978979 1721.00579,148.170026 1723.23976,148.170026 L1735.36856,148.170026 C1737.59995,148.170026 1739.41149,149.978979 1739.41149,152.212958 L1739.41149,164.341754" id="Fill-111" fill="#CBCCCB"></path>
                    <path d="M1425.2394,351.208141 C1425.2394,353.439529 1423.42785,355.251073 1421.19387,355.251073 L1409.06767,355.251073 C1406.83369,355.251073 1405.02215,353.439529 1405.02215,351.208141 L1405.02215,339.079346 C1405.02215,336.845366 1406.83369,335.033822 1409.06767,335.033822 L1421.19387,335.033822 C1423.42785,335.033822 1425.2394,336.845366 1425.2394,339.079346 L1425.2394,351.208141" id="Fill-112" fill="#CBCCCB"></path>
                    <path d="M555.513089,47.1534031 C555.513089,49.3873822 553.701545,51.1963351 551.470157,51.1963351 L539.33877,51.1963351 C537.107382,51.1963351 535.295838,49.3873822 535.295838,47.1534031 L535.295838,35.0246073 C535.295838,32.7906283 537.107382,30.9816754 539.33877,30.9816754 L551.470157,30.9816754 C553.701545,30.9816754 555.513089,32.7906283 555.513089,35.0246073 L555.513089,47.1534031" id="Fill-113" fill="#F2F2F1"></path>
                    <path d="M733.864346,309.972827 C733.864346,312.204215 732.052801,314.015759 729.821414,314.015759 L717.692618,314.015759 C715.458639,314.015759 713.647094,312.204215 713.647094,309.972827 L713.647094,297.84144 C713.647094,295.607461 715.458639,293.798508 717.692618,293.798508 L729.821414,293.798508 C732.052801,293.798508 733.864346,295.607461 733.864346,297.84144 L733.864346,309.972827" id="Fill-114" fill="#F2F2F1"></path>
                    <path d="M986.521675,271.992592 C986.521675,274.226571 984.712723,276.035524 982.478743,276.035524 L970.347356,276.035524 C968.115969,276.035524 966.304424,274.226571 966.304424,271.992592 L966.304424,259.863796 C966.304424,257.629817 968.115969,255.820864 970.347356,255.820864 L982.478743,255.820864 C984.712723,255.820864 986.521675,257.629817 986.521675,259.863796 L986.521675,271.992592" id="Fill-115" fill="#CBCCCB"></path>
                    <path d="M1318.86623,242.010105 C1318.86623,244.244084 1317.05728,246.053037 1314.82071,246.053037 L1302.6945,246.053037 C1300.46052,246.053037 1298.64898,244.244084 1298.64898,242.010105 L1298.64898,229.881309 C1298.64898,227.64733 1300.46052,225.838377 1302.6945,225.838377 L1314.82071,225.838377 C1317.05728,225.838377 1318.86623,227.64733 1318.86623,229.881309 L1318.86623,242.010105" id="Fill-116" fill="#CBCCCB"></path>
                    <path d="M1748.71131,422.919084 C1748.71131,425.153063 1746.89976,426.962016 1744.66838,426.962016 L1732.53958,426.962016 C1730.30819,426.962016 1728.49665,425.153063 1728.49665,422.919084 L1728.49665,410.790288 C1728.49665,408.556309 1730.30819,406.747356 1732.53958,406.747356 L1744.66838,406.747356 C1746.89976,406.747356 1748.71131,408.556309 1748.71131,410.790288 L1748.71131,422.919084" id="Fill-117" fill="#9E9F9E"></path>
                    <path d="M1599.74893,301.27534 C1599.74893,303.509319 1597.93479,305.320864 1595.7034,305.320864 L1583.57461,305.320864 C1581.34322,305.320864 1579.53168,303.509319 1579.53168,301.27534 L1579.53168,289.146545 C1579.53168,286.912565 1581.34322,285.103613 1583.57461,285.103613 L1595.7034,285.103613 C1597.93479,285.103613 1599.74893,286.912565 1599.74893,289.146545 L1599.74893,301.27534" id="Fill-118" fill="#9E9F9E"></path>
                    <path d="M1722.49118,221.560785 C1722.49118,223.794764 1720.68223,225.603717 1718.44825,225.603717 L1706.31945,225.603717 C1704.08547,225.603717 1702.27652,223.794764 1702.27652,221.560785 L1702.27652,209.43199 C1702.27652,207.19801 1704.08547,205.386466 1706.31945,205.386466 L1718.44825,205.386466 C1720.68223,205.386466 1722.49118,207.19801 1722.49118,209.43199 L1722.49118,221.560785" id="Fill-119" fill="#9E9F9E"></path>
                    <path d="M802.042173,366.221414 C802.042173,370.129581 798.872618,373.299136 794.96445,373.299136 L773.739058,373.299136 C769.828298,373.299136 766.661335,370.129581 766.661335,366.221414 L766.661335,344.996021 C766.661335,341.087853 769.828298,337.92089 773.739058,337.92089 L794.96445,337.92089 C798.872618,337.92089 802.042173,341.087853 802.042173,344.996021 L802.042173,366.221414" id="Fill-120" fill="#CBCCCB"></path>
                    <path d="M403.569764,146.061126 C403.569764,148.295105 401.75822,150.106649 399.526832,150.106649 L387.398037,150.106649 C385.164058,150.106649 383.355105,148.295105 383.355105,146.061126 L383.355105,133.93233 C383.355105,131.700942 385.164058,129.889398 387.398037,129.889398 L399.526832,129.889398 C401.75822,129.889398 403.569764,131.700942 403.569764,133.93233 L403.569764,146.061126" id="Fill-121" fill="#9E9F9E"></path>
                    <path d="M924.545602,352.09966 C924.545602,354.333639 922.736649,356.145183 920.50267,356.145183 L908.373874,356.145183 C906.139895,356.145183 904.330942,354.333639 904.330942,352.09966 L904.330942,339.970864 C904.330942,337.736885 906.139895,335.927932 908.373874,335.927932 L920.50267,335.927932 C922.736649,335.927932 924.545602,337.736885 924.545602,339.970864 L924.545602,352.09966" id="Fill-122" fill="#CBCCCB"></path>
                    <path d="M1308.75631,393.171702 C1308.75631,395.403089 1306.94995,397.214634 1304.71338,397.214634 L1292.58458,397.214634 C1290.35319,397.214634 1288.54165,395.403089 1288.54165,393.171702 L1288.54165,381.040314 C1288.54165,378.808927 1290.35319,376.997382 1292.58458,376.997382 L1304.71338,376.997382 C1306.94995,376.997382 1308.75631,378.808927 1308.75631,381.040314 L1308.75631,393.171702" id="Fill-123" fill="#CBCCCB"></path>
                    <path d="M1517.65668,401.993586 C1517.65668,404.227565 1515.84513,406.036518 1513.61115,406.036518 L1501.48495,406.036518 C1499.25097,406.036518 1497.43942,404.227565 1497.43942,401.993586 L1497.43942,389.864791 C1497.43942,387.630812 1499.25097,385.821859 1501.48495,385.821859 L1513.61115,385.821859 C1515.84513,385.821859 1517.65668,387.630812 1517.65668,389.864791 L1517.65668,401.993586" id="Fill-124" fill="#F2F2F1"></path>
                    <path d="M602.927775,287.938848 C602.927775,290.172827 601.118822,291.984372 598.887435,291.984372 L586.756047,291.984372 C584.52466,291.984372 582.710524,290.172827 582.710524,287.938848 L582.710524,275.810052 C582.710524,273.576073 584.52466,271.76712 586.756047,271.76712 L598.887435,271.76712 C601.118822,271.76712 602.927775,273.576073 602.927775,275.810052 L602.927775,287.938848" id="Fill-125" fill="#F2F2F1"></path>
                    <path d="M447.145314,309.972827 C447.145314,312.204215 445.336361,314.015759 443.102382,314.015759 L430.973586,314.015759 C428.739607,314.015759 426.930654,312.204215 426.930654,309.972827 L426.930654,297.84144 C426.930654,295.607461 428.739607,293.798508 430.973586,293.798508 L443.102382,293.798508 C445.336361,293.798508 447.145314,295.607461 447.145314,297.84144 L447.145314,309.972827" id="Fill-126" fill="#F2F2F1"></path>
                    <path d="M699.802644,271.992592 C699.802644,274.226571 697.993691,276.035524 695.759712,276.035524 L683.628325,276.035524 C681.396937,276.035524 679.585393,274.226571 679.585393,271.992592 L679.585393,259.863796 C679.585393,257.629817 681.396937,255.820864 683.628325,255.820864 L695.759712,255.820864 C697.993691,255.820864 699.802644,257.629817 699.802644,259.863796 L699.802644,271.992592" id="Fill-127" fill="#CBCCCB"></path>
                    <path d="M1065.89791,270.844503 C1065.89791,273.078482 1064.09154,274.887435 1061.85497,274.887435 L1049.72618,274.887435 C1047.49479,274.887435 1045.68325,273.078482 1045.68325,270.844503 L1045.68325,258.715707 C1045.68325,256.481728 1047.49479,254.672775 1049.72618,254.672775 L1061.85497,254.672775 C1064.09154,254.672775 1065.89791,256.481728 1065.89791,258.715707 L1065.89791,270.844503" id="Fill-128" fill="#CBCCCB"></path>
                    <path d="M976.994869,25.9190838 C976.994869,28.1530628 975.183325,29.9620157 972.949346,29.9620157 L960.82055,29.9620157 C958.589162,29.9620157 956.777618,28.1530628 956.777618,25.9190838 L956.777618,13.790288 C956.777618,11.5563089 958.589162,9.74735602 960.82055,9.74735602 L972.949346,9.74735602 C975.183325,9.74735602 976.994869,11.5563089 976.994869,13.790288 L976.994869,25.9190838" id="Fill-129" fill="#9E9F9E"></path>
                    <path d="M1313.0299,301.27534 C1313.0299,303.509319 1311.21835,305.320864 1308.98437,305.320864 L1296.85817,305.320864 C1294.62419,305.320864 1292.81264,303.509319 1292.81264,301.27534 L1292.81264,289.146545 C1292.81264,286.912565 1294.62419,285.103613 1296.85817,285.103613 L1308.98437,285.103613 C1311.21835,285.103613 1313.0299,286.912565 1313.0299,289.146545 L1313.0299,301.27534" id="Fill-130" fill="#9E9F9E"></path>
                    <path d="M1706.36571,104.864005 C1706.36571,108.35233 1703.54084,111.182382 1700.04992,111.182382 L1681.09479,111.182382 C1677.60647,111.182382 1674.77901,108.35233 1674.77901,104.864005 L1674.77901,85.911466 C1674.77901,82.4205497 1677.60647,79.593089 1681.09479,79.593089 L1700.04992,79.593089 C1703.54084,79.593089 1706.36571,82.4205497 1706.36571,85.911466 L1706.36571,104.864005" id="Fill-133" fill="#CBCCCB"></path>
                    <path d="M492.192906,377.222853 C492.192906,379.456832 490.381361,381.268377 488.147382,381.268377 L476.018586,381.268377 C473.784607,381.268377 471.975654,379.456832 471.975654,377.222853 L471.975654,365.094058 C471.975654,362.86267 473.784607,361.051126 476.018586,361.051126 L488.147382,361.051126 C490.381361,361.051126 492.192906,362.86267 492.192906,365.094058 L492.192906,377.222853" id="Fill-134" fill="#CBCCCB"></path>
                    <path d="M637.829162,352.09966 C637.829162,354.333639 636.017618,356.145183 633.783639,356.145183 L621.654843,356.145183 C619.420864,356.145183 617.611911,354.333639 617.611911,352.09966 L617.611911,339.970864 C617.611911,337.736885 619.420864,335.927932 621.654843,335.927932 L633.783639,335.927932 C636.017618,335.927932 637.829162,337.736885 637.829162,339.970864 L637.829162,352.09966" id="Fill-136" fill="#CBCCCB"></path>
                    <path d="M1022.03987,393.171702 C1022.03987,395.403089 1020.23092,397.214634 1017.99435,397.214634 L1005.86555,397.214634 C1003.63416,397.214634 1001.82262,395.403089 1001.82262,393.171702 L1001.82262,381.040314 C1001.82262,378.808927 1003.63416,376.997382 1005.86555,376.997382 L1017.99435,376.997382 C1020.23092,376.997382 1022.03987,378.808927 1022.03987,381.040314 L1022.03987,393.171702" id="Fill-137" fill="#CBCCCB"></path>
                    <path d="M1230.93764,401.993586 C1230.93764,404.227565 1229.1261,406.036518 1226.89471,406.036518 L1214.76592,406.036518 C1212.53453,406.036518 1210.72039,404.227565 1210.72039,401.993586 L1210.72039,389.864791 C1210.72039,387.630812 1212.53453,385.821859 1214.76592,385.821859 L1226.89471,385.821859 C1229.1261,385.821859 1230.93764,387.630812 1230.93764,389.864791 L1230.93764,401.993586" id="Fill-138" fill="#CBCCCB"></path>
                    <path d="M316.211335,287.938848 C316.211335,290.172827 314.399791,291.984372 312.168403,291.984372 L300.037016,291.984372 C297.805628,291.984372 295.994084,290.172827 295.994084,287.938848 L295.994084,275.810052 C295.994084,273.576073 297.805628,271.76712 300.037016,271.76712 L312.168403,271.76712 C314.399791,271.76712 316.211335,273.576073 316.211335,275.810052 L316.211335,287.938848" id="Fill-144" fill="#F2F2F1"></path>
                    <path d="M246.061283,343.422906 C246.061283,345.656885 244.249738,347.465838 242.015759,347.465838 L229.886963,347.465838 C227.652984,347.465838 225.844031,345.656885 225.844031,343.422906 L225.844031,331.29411 C225.844031,329.060131 227.652984,327.251178 229.886963,327.251178 L242.015759,327.251178 C244.249738,327.251178 246.061283,329.060131 246.061283,331.29411 L246.061283,343.422906" id="Fill-154" fill="#F2F2F1"></path>
                </g>
            </g>
        </g>
    </g>
</svg>