<?xml version="1.0" encoding="UTF-8" standalone="no"?>
<svg width="135px" height="32px" viewBox="0 0 135 32" version="1.1" xmlns="http://www.w3.org/2000/svg" xmlns:xlink="http://www.w3.org/1999/xlink" xmlns:sketch="http://www.bohemiancoding.com/sketch/ns">
    <!-- Generator: Sketch 3.1 (8751) - http://www.bohemiancoding.com/sketch -->
    <title>appbackr-brand</title>
    <desc>Created with Sketch.</desc>
    <defs></defs>
    <g id="Page-1" stroke="none" stroke-width="1" fill="none" fill-rule="evenodd" sketch:type="MSPage">
        <g id="appbackr-brand" sketch:type="MSLayerGroup" transform="translate(0.000000, 0.600000)">
            <path d="M1.08554286,8.95404643 C1.97651786,8.13372143 3.00767143,7.51805714 4.180125,7.108175 C5.35201786,6.69773214 6.52391071,6.49251071 7.69636429,6.49251071 C8.91479643,6.49251071 9.96445357,6.645025 10.8430929,6.94949286 C11.7222929,7.25452143 12.4433714,7.66496429 13.0057679,8.18026071 C13.5681643,8.69611786 13.9842143,9.28767143 14.2539179,9.95548214 C14.5230607,10.6238536 14.6581929,11.3219429 14.6581929,12.0475071 L14.6581929,20.5574679 C14.6581929,21.143975 14.6699679,21.6828214 14.6935179,22.1751286 C14.7165071,22.6674357 14.7518321,23.1367536 14.7994929,23.5814 L11.9858286,23.5814 C11.9157393,22.737525 11.8804143,21.89365 11.8804143,21.049775 L11.810325,21.049775 C11.1071893,22.1285893 10.2745286,22.8906 9.314025,23.3352464 C8.3524,23.7804536 7.23882143,24.0036179 5.97328929,24.0036179 C5.19950357,24.0036179 4.46104286,23.8976429 3.75790714,23.6868143 C3.05477143,23.4765464 2.43910714,23.1597429 1.91203571,22.737525 C1.38440357,22.3158679 0.967792857,21.7944036 0.663325,21.1725714 C0.358857143,20.5518607 0.206342857,19.8313429 0.206342857,19.0104571 C0.206342857,17.9327643 0.446328571,17.0294536 0.927421429,16.3033286 C1.40739286,15.5766429 2.06398929,14.9839679 2.89665,14.5275464 C3.72818929,14.0694429 4.70102857,13.7419857 5.81516786,13.5429321 C6.92818571,13.3438786 8.11802143,13.2435107 9.38411429,13.2435107 L11.7049107,13.2435107 L11.7049107,12.540375 C11.7049107,12.1181571 11.6224857,11.6965 11.4587571,11.2748429 C11.2944679,10.852625 11.0483143,10.4719 10.7202964,10.1315464 C10.3917179,9.79231429 9.98183571,9.52261071 9.48952857,9.32299643 C8.99722143,9.12450357 8.411275,9.02413571 7.73112857,9.02413571 C7.12163214,9.02413571 6.58839286,9.08301071 6.13141071,9.2002 C5.67442857,9.31738929 5.25781786,9.463175 4.88326071,9.63923929 C4.50814286,9.81530357 4.16778929,10.020525 3.86332143,10.2549036 C3.55829286,10.4892821 3.2656,10.7118857 2.98468214,10.9227143 L1.08554286,8.95404643 L1.08554286,8.95404643 Z M10.0166,15.5648679 C9.26636429,15.5648679 8.49874643,15.6058 7.71374643,15.6871036 C6.92818571,15.7695286 6.213275,15.92765 5.56901429,16.1620286 C4.92363214,16.3969679 4.396,16.7249857 3.98667857,17.1466429 C3.57623571,17.5688607 3.37101429,18.1082679 3.37101429,18.7643036 C3.37101429,19.7253679 3.693425,20.4172893 4.33824643,20.8389464 C4.98250714,21.2606036 5.85553929,21.4714321 6.95790357,21.4714321 C7.82476786,21.4714321 8.56322857,21.3256464 9.172725,21.0323929 C9.78222143,20.7391393 10.2745286,20.3584143 10.6502071,19.8896571 C11.0247643,19.4209 11.2944679,18.8994357 11.4587571,18.3247036 C11.6224857,17.7505321 11.7049107,17.1819679 11.7049107,16.6195714 L11.7049107,15.5648679 L10.0166,15.5648679 L10.0166,15.5648679 Z" id="Fill-1" fill="#1B1A19" sketch:type="MSShapeGroup"></path>
            <path d="M17.1550536,6.91416786 L20.319725,6.91416786 L20.319725,9.30561429 L20.3898143,9.30561429 C20.9993107,8.41463929 21.8370179,7.72327857 22.9040571,7.23097143 C23.9705357,6.73866429 25.0667321,6.49251071 26.1920857,6.49251071 C27.4811679,6.49251071 28.6474536,6.715675 29.6903821,7.16032143 C30.7333107,7.60608929 31.6242857,8.22736071 32.3627464,9.02413571 C33.1017679,9.82147143 33.6692107,10.7533786 34.0684393,11.8192964 C34.4671071,12.8863357 34.6661607,14.0296321 34.6661607,15.2480643 C34.6661607,16.4906071 34.4671071,17.6451179 34.0684393,18.7115964 C33.6692107,19.7786357 33.1017679,20.704375 32.3627464,21.489375 C31.6242857,22.2749357 30.7333107,22.8906 29.6903821,23.3352464 C28.6474536,23.7804536 27.4811679,24.0036179 26.1920857,24.0036179 C24.9966429,24.0036179 23.8712893,23.7512964 22.816025,23.2472143 C21.7613214,22.7436929 20.9527714,22.0579393 20.3898143,21.1905143 L20.319725,21.1905143 L20.319725,30.697425 L17.1550536,30.697425 L17.1550536,6.91416786 L17.1550536,6.91416786 Z M25.8051929,9.44635357 C24.9613179,9.44635357 24.1993071,9.5927 23.5191607,9.88539286 C22.839575,10.1792071 22.2648429,10.5773143 21.7966464,11.0808357 C21.3273286,11.5854786 20.9639857,12.1944143 20.7066179,12.9098857 C20.4481286,13.6247964 20.319725,14.4041893 20.319725,15.2480643 C20.319725,16.0919393 20.4481286,16.8713321 20.7066179,17.5862429 C20.9639857,18.3017143 21.3273286,18.9112107 21.7966464,19.4147321 C22.2648429,19.919375 22.839575,20.3174821 23.5191607,20.610175 C24.1993071,20.9039893 24.9613179,21.049775 25.8051929,21.049775 C26.6490679,21.049775 27.4105179,20.9039893 28.0906643,20.610175 C28.77025,20.3174821 29.3444214,19.919375 29.8137393,19.4147321 C30.2824964,18.9112107 30.6452786,18.3017143 30.9037679,17.5862429 C31.1616964,16.8713321 31.2906607,16.0919393 31.2906607,15.2480643 C31.2906607,14.4041893 31.1616964,13.6247964 30.9037679,12.9098857 C30.6452786,12.1944143 30.2824964,11.5854786 29.8137393,11.0808357 C29.3444214,10.5773143 28.77025,10.1792071 28.0906643,9.88539286 C27.4105179,9.5927 26.6490679,9.44635357 25.8051929,9.44635357 L25.8051929,9.44635357 Z" id="Fill-2" fill="#1B1A19" sketch:type="MSShapeGroup"></path>
            <path d="M36.5294143,6.91416786 L39.6940857,6.91416786 L39.6940857,9.30561429 L39.7647357,9.30561429 C40.3736714,8.41463929 41.2113786,7.72327857 42.2784179,7.23097143 C43.3448964,6.73866429 44.4410929,6.49251071 45.5664464,6.49251071 C46.8555286,6.49251071 48.0218143,6.715675 49.0653036,7.16032143 C50.1082321,7.60608929 50.9992071,8.22736071 51.7376679,9.02413571 C52.4755679,9.82147143 53.0441321,10.7533786 53.4428,11.8192964 C53.8414679,12.8863357 54.0405214,14.0296321 54.0405214,15.2480643 C54.0405214,16.4906071 53.8414679,17.6451179 53.4428,18.7115964 C53.0441321,19.7786357 52.4755679,20.704375 51.7376679,21.489375 C50.9992071,22.2749357 50.1082321,22.8906 49.0653036,23.3352464 C48.0218143,23.7804536 46.8555286,24.0036179 45.5664464,24.0036179 C44.3710036,24.0036179 43.24565,23.7512964 42.1903857,23.2472143 C41.1356821,22.7436929 40.3271321,22.0579393 39.7647357,21.1905143 L39.6940857,21.1905143 L39.6940857,30.697425 L36.5294143,30.697425 L36.5294143,6.91416786 L36.5294143,6.91416786 Z M45.1795536,9.44635357 C44.3356786,9.44635357 43.5736679,9.5927 42.8940821,9.88539286 C42.2139357,10.1792071 41.6397643,10.5773143 41.1710071,11.0808357 C40.7016893,11.5854786 40.3383464,12.1944143 40.0809786,12.9098857 C39.82305,13.6247964 39.6940857,14.4041893 39.6940857,15.2480643 C39.6940857,16.0919393 39.82305,16.8713321 40.0809786,17.5862429 C40.3383464,18.3017143 40.7016893,18.9112107 41.1710071,19.4147321 C41.6397643,19.919375 42.2139357,20.3174821 42.8940821,20.610175 C43.5736679,20.9039893 44.3356786,21.049775 45.1795536,21.049775 C46.0234286,21.049775 46.7854393,20.9039893 47.465025,20.610175 C48.1446107,20.3174821 48.7193429,19.919375 49.1881,19.4147321 C49.6568571,18.9112107 50.0202,18.3017143 50.2786893,17.5862429 C50.5360571,16.8713321 50.6650214,16.0919393 50.6650214,15.2480643 C50.6650214,14.4041893 50.5360571,13.6247964 50.2786893,12.9098857 C50.0202,12.1944143 49.6568571,11.5854786 49.1881,11.0808357 C48.7193429,10.5773143 48.1446107,10.1792071 47.465025,9.88539286 C46.7854393,9.5927 46.0234286,9.44635357 45.1795536,9.44635357 L45.1795536,9.44635357 Z" id="Fill-3" fill="#1B1A19" sketch:type="MSShapeGroup"></path>
            <path d="M55.9043357,0 L59.0690071,0 L59.0690071,9.30561429 L59.1396571,9.30561429 C59.7020536,8.43818929 60.5106036,7.75243571 61.5658679,7.24835357 C62.6205714,6.74427143 63.745925,6.49251071 64.9413679,6.49251071 C66.23045,6.49251071 67.3967357,6.715675 68.4396643,7.16032143 C69.4825929,7.60608929 70.3735679,8.22119286 71.1120286,9.00675357 C71.8504893,9.79231429 72.4190536,10.7180536 72.8177214,11.7845321 C73.2163893,12.8515714 73.4154429,14.0060821 73.4154429,15.2480643 C73.4154429,16.4906071 73.2163893,17.63895 72.8177214,18.6942143 C72.4190536,19.7489179 71.8504893,20.6752179 71.1120286,21.4714321 C70.3735679,22.2687679 69.4825929,22.8906 68.4396643,23.3352464 C67.3967357,23.7804536 66.23045,24.0036179 64.9413679,24.0036179 C63.8160143,24.0036179 62.7198179,23.7574643 61.6539,23.2651571 C60.5863,22.77285 59.7485929,22.0814893 59.1396571,21.1905143 L59.0690071,21.1905143 L59.0690071,23.5814 L55.9043357,23.5814 L55.9043357,0 L55.9043357,0 Z M64.554475,21.049775 C65.39835,21.049775 66.1598,20.9039893 66.8399464,20.610175 C67.5195321,20.3174821 68.0937036,19.919375 68.5630214,19.4147321 C69.0317786,18.9112107 69.3945607,18.3017143 69.65305,17.5862429 C69.9104179,16.8713321 70.0399429,16.0919393 70.0399429,15.2480643 C70.0399429,14.4041893 69.9104179,13.6247964 69.65305,12.9098857 C69.3945607,12.1944143 69.0317786,11.5854786 68.5630214,11.0808357 C68.0937036,10.5773143 67.5195321,10.1792071 66.8399464,9.88539286 C66.1598,9.5927 65.39835,9.44635357 64.554475,9.44635357 C63.7106,9.44635357 62.9485893,9.5927 62.2690036,9.88539286 C61.5882964,10.1792071 61.0146857,10.5773143 60.5453679,11.0808357 C60.0766107,11.5854786 59.7132679,12.1944143 59.4559,12.9098857 C59.1974107,13.6247964 59.0690071,14.4041893 59.0690071,15.2480643 C59.0690071,16.0919393 59.1974107,16.8713321 59.4559,17.5862429 C59.7132679,18.3017143 60.0766107,18.9112107 60.5453679,19.4147321 C61.0146857,19.919375 61.5882964,20.3174821 62.2690036,20.610175 C62.9485893,20.9039893 63.7106,21.049775 64.554475,21.049775 L64.554475,21.049775 Z" id="Fill-4" fill="#828685" sketch:type="MSShapeGroup"></path>
            <path d="M75.3487857,8.95404643 C76.2392,8.13372143 77.2709143,7.51805714 78.4433679,7.108175 C79.6147,6.69773214 80.7871536,6.49251071 81.9596071,6.49251071 C83.1786,6.49251071 84.2276964,6.645025 85.1068964,6.94949286 C85.9855357,7.25452143 86.7066143,7.66496429 87.2690107,8.18026071 C87.8319679,8.69611786 88.2474571,9.28767143 88.5177214,9.95548214 C88.7868643,10.6238536 88.9219964,11.3219429 88.9219964,12.0475071 L88.9219964,20.5574679 C88.9219964,21.143975 88.9332107,21.6828214 88.9567607,22.1751286 C88.9803107,22.6674357 89.015075,23.1367536 89.0627357,23.5814 L86.2496321,23.5814 C86.1789821,22.737525 86.1442179,21.89365 86.1442179,21.049775 L86.0735679,21.049775 C85.3704321,22.1285893 84.5377714,22.8906 83.5772679,23.3352464 C82.6156429,23.7804536 81.502625,24.0036179 80.2365321,24.0036179 C79.4633071,24.0036179 78.7242857,23.8976429 78.0217107,23.6868143 C77.3180143,23.4765464 76.70235,23.1597429 76.1752786,22.737525 C75.6476464,22.3158679 75.2310357,21.7944036 74.9271286,21.1725714 C74.6221,20.5518607 74.4701464,19.8313429 74.4701464,19.0104571 C74.4701464,17.9327643 74.7095714,17.0294536 75.1906643,16.3033286 C75.6711964,15.5766429 76.3272321,14.9839679 77.1593321,14.5275464 C77.9914321,14.0694429 78.9642714,13.7419857 80.0784107,13.5429321 C81.1914286,13.3438786 82.381825,13.2435107 83.6473571,13.2435107 L85.9681536,13.2435107 L85.9681536,12.540375 C85.9681536,12.1181571 85.8857286,11.6965 85.722,11.2748429 C85.5577107,10.852625 85.3115571,10.4719 84.9835393,10.1315464 C84.6549607,9.79231429 84.2450786,9.52261071 83.7527714,9.32299643 C83.2604643,9.12450357 82.6739571,9.02413571 81.9949321,9.02413571 C81.384875,9.02413571 80.8521964,9.08301071 80.3946536,9.2002 C79.9376714,9.31738929 79.5210607,9.463175 79.1465036,9.63923929 C78.7713857,9.81530357 78.4310321,10.020525 78.1265643,10.2549036 C77.8220964,10.4892821 77.5288429,10.7118857 77.2473643,10.9227143 L75.3487857,8.95404643 L75.3487857,8.95404643 Z M84.2804036,15.5648679 C83.5296071,15.5648679 82.7619893,15.6058 81.97755,15.6871036 C81.1914286,15.7695286 80.4770786,15.92765 79.8322571,16.1620286 C79.186875,16.3969679 78.6598036,16.7249857 78.2499214,17.1466429 C77.8394786,17.5688607 77.6348179,18.1082679 77.6348179,18.7643036 C77.6348179,19.7253679 77.9561071,20.4172893 78.6014893,20.8389464 C79.24575,21.2606036 80.1193429,21.4714321 81.2211464,21.4714321 C82.0880107,21.4714321 82.8264714,21.3256464 83.4365286,21.0323929 C84.0454643,20.7391393 84.5377714,20.3584143 84.9128893,19.8896571 C85.2874464,19.4209 85.5577107,18.8994357 85.722,18.3247036 C85.8857286,17.7505321 85.9681536,17.1819679 85.9681536,16.6195714 L85.9681536,15.5648679 L84.2804036,15.5648679 L84.2804036,15.5648679 Z" id="Fill-5" fill="#828685" sketch:type="MSShapeGroup"></path>
            <path d="M103.338521,11.3449321 C102.752014,10.7354357 102.136911,10.2722857 101.49265,9.95548214 C100.847268,9.63923929 100.080211,9.48111786 99.1892357,9.48111786 C98.32125,9.48111786 97.5659679,9.63923929 96.9211464,9.95548214 C96.2757643,10.2722857 95.7369179,10.7062786 95.3034857,11.2569 C94.8700536,11.8080821 94.541475,12.4405679 94.3194321,13.1560393 C94.0957071,13.87095 93.9852464,14.6150179 93.9852464,15.3888036 C93.9852464,16.1620286 94.11365,16.8954429 94.3715786,17.5862429 C94.6295071,18.2781643 94.99285,18.8820536 95.4616071,19.3967893 C95.9303643,19.9126464 96.4933214,20.3174821 97.1499179,20.610175 C97.8053929,20.9039893 98.5438536,21.049775 99.3647393,21.049775 C100.255154,21.049775 101.017725,20.8916536 101.650771,20.5754107 C102.283818,20.2586071 102.869204,19.7960179 103.408611,19.1865214 L105.659318,21.4366679 C104.838432,22.3511929 103.883536,23.0072286 102.793507,23.4058964 C101.703479,23.8040036 100.548407,24.0036179 99.329975,24.0036179 C98.0403321,24.0036179 96.8628321,23.7927893 95.7957929,23.3705714 C94.7287536,22.9483536 93.8091821,22.3568 93.0359571,21.5947893 C92.2621714,20.8333393 91.66445,19.919375 91.2422321,18.8523357 C90.820575,17.7858571 90.6097464,16.6077964 90.6097464,15.3187143 C90.6097464,14.0296321 90.820575,12.8454036 91.2422321,11.76715 C91.66445,10.6888964 92.2560036,9.76259643 93.0180143,8.98881071 C93.7794643,8.21558571 94.6939893,7.61225714 95.7610286,7.17826429 C96.8269464,6.74427143 98.0167821,6.527275 99.329975,6.527275 C100.548407,6.527275 101.714693,6.74427143 102.828271,7.17826429 C103.94185,7.61225714 104.908521,8.2739 105.729407,9.16431429 L103.338521,11.3449321" id="Fill-6" fill="#828685" sketch:type="MSShapeGroup"></path>
            <path d="M107.657143,0 L110.821814,0 L110.821814,14.1580357 L117.995032,6.94949286 L122.390471,6.94949286 L114.618971,14.5096036 L123.058843,23.5814 L118.557429,23.5814 L110.821814,14.9318214 L110.821814,23.5814 L107.657143,23.5814 L107.657143,0" id="Fill-7" fill="#828685" sketch:type="MSShapeGroup"></path>
            <path d="M124.730332,6.91416786 L127.895004,6.91416786 L127.895004,9.48111786 L127.965654,9.48111786 C128.176482,9.03591071 128.457961,8.63219643 128.809529,8.26829286 C129.161096,7.90438929 129.553036,7.594875 129.987589,7.33638571 C130.421021,7.07901786 130.895386,6.87379643 131.411243,6.72072143 C131.9271,6.56876786 132.442957,6.49251071 132.958254,6.49251071 C133.474111,6.49251071 133.943429,6.5626 134.365086,6.70333929 L134.224907,10.1141643 C133.966418,10.044075 133.708489,9.98576071 133.451121,9.93866071 C133.192632,9.89212143 132.935264,9.86801071 132.677336,9.86801071 C131.130325,9.86801071 129.946096,10.3020036 129.125771,11.1688679 C128.305446,12.0368536 127.895004,13.38425 127.895004,15.2127393 L127.895004,23.5814 L124.730332,23.5814 L124.730332,6.91416786" id="Fill-8" fill="#828685" sketch:type="MSShapeGroup"></path>
            <path d="M131.509929,22.2485821 C131.509929,22.0568179 131.546375,21.8768286 131.619829,21.709175 C131.693282,21.5409607 131.793089,21.3940536 131.918689,21.2684536 C132.044289,21.1428536 132.191196,21.0430464 132.35885,20.9695929 C132.527064,20.8961393 132.706493,20.8596929 132.898818,20.8596929 C133.090582,20.8596929 133.270011,20.8961393 133.438225,20.9695929 C133.606439,21.0430464 133.753346,21.1428536 133.878946,21.2684536 C134.004546,21.3940536 134.104354,21.5409607 134.177807,21.709175 C134.2507,21.8768286 134.287707,22.0568179 134.287707,22.2485821 C134.287707,22.4397857 134.2507,22.619775 134.177807,22.7879893 C134.104354,22.9562036 134.004546,23.1031107 133.878946,23.2287107 C133.753346,23.3543107 133.606439,23.4541179 133.438225,23.5270107 C133.270011,23.6004643 133.090582,23.6374714 132.898818,23.6374714 C132.706493,23.6374714 132.527064,23.6004643 132.35885,23.5270107 C132.191196,23.4541179 132.044289,23.3543107 131.918689,23.2287107 C131.793089,23.1031107 131.693282,22.9562036 131.619829,22.7879893 C131.546375,22.619775 131.509929,22.4397857 131.509929,22.2485821 L131.509929,22.2485821 Z M131.756082,22.2485821 C131.756082,22.4050214 131.786361,22.5536107 131.845796,22.6926679 C131.905793,22.8322857 131.987096,22.9539607 132.090268,23.0571321 C132.193439,23.1603036 132.314554,23.2416071 132.454171,23.3016036 C132.593789,23.3610393 132.741818,23.3907571 132.898818,23.3907571 C133.055818,23.3907571 133.203286,23.3610393 133.342904,23.3016036 C133.482521,23.2416071 133.603636,23.1603036 133.707368,23.0571321 C133.809979,22.9539607 133.891843,22.8322857 133.951279,22.6926679 C134.011836,22.5536107 134.040993,22.4050214 134.040993,22.2485821 C134.040993,22.0915821 134.011836,21.9435536 133.951279,21.8039357 C133.891843,21.6648786 133.809979,21.5432036 133.707368,21.4400321 C133.603636,21.3368607 133.482521,21.2555571 133.342904,21.1955607 C133.203286,21.1355643 133.055818,21.1058464 132.898818,21.1058464 C132.741818,21.1058464 132.593789,21.1355643 132.454171,21.1955607 C132.314554,21.2555571 132.193439,21.3368607 132.090268,21.4400321 C131.987096,21.5432036 131.905793,21.6648786 131.845796,21.8039357 C131.786361,21.9435536 131.756082,22.0915821 131.756082,22.2485821 L131.756082,22.2485821 Z M132.364457,21.4456393 L132.977318,21.4456393 C133.169082,21.4456393 133.310382,21.4865714 133.401218,21.5689964 C133.492054,21.6508607 133.537471,21.7691714 133.537471,21.9239286 C133.537471,22.0629857 133.501025,22.1678393 133.430375,22.2373679 C133.358604,22.3068964 133.268889,22.3478286 133.160111,22.3601643 L133.571114,23.0324607 L133.264964,23.0324607 L132.8691,22.3831536 L132.656029,22.3831536 L132.656029,23.0324607 L132.364457,23.0324607 L132.364457,21.4456393 L132.364457,21.4456393 Z M132.656029,22.1364393 L132.8691,22.1364393 C132.913957,22.1364393 132.958814,22.1347571 133.003111,22.1308321 C133.047968,22.1269071 133.088339,22.1179357 133.124786,22.1027964 C133.160671,22.0882179 133.189829,22.0657893 133.212257,22.0355107 C133.234686,22.0057929 133.2459,21.9648607 133.2459,21.9127143 C133.2459,21.8600071 133.234686,21.819075 133.212257,21.7893571 C133.189829,21.7596393 133.160671,21.7372107 133.124786,21.7220714 C133.088339,21.7069321 133.047968,21.6985214 133.003111,21.6957179 C132.958814,21.693475 132.913957,21.6923536 132.8691,21.6923536 L132.656029,21.6923536 L132.656029,22.1364393 L132.656029,22.1364393 Z" id="Fill-9" fill="#828685" sketch:type="MSShapeGroup"></path>
        </g>
    </g>
</svg>
