<?xml version="1.0" encoding="UTF-8" standalone="no"?>
<svg width="20px" height="20px" viewBox="0 0 20 20" version="1.1" xmlns="http://www.w3.org/2000/svg" xmlns:xlink="http://www.w3.org/1999/xlink" xmlns:sketch="http://www.bohemiancoding.com/sketch/ns">
    <!-- Generator: Sketch 3.1.1 (8761) - http://www.bohemiancoding.com/sketch -->
    <title>btn-edit</title>
    <desc>Created with Sketch.</desc>
    <defs></defs>
    <g id="Detail" stroke="none" stroke-width="1" fill="none" fill-rule="evenodd" sketch:type="MSPage">
        <g id="appalog-unlocked" sketch:type="MSArtboardGroup" transform="translate(-566.000000, -1017.000000)" fill="#43AC44">
            <g id="SENTIMENTS---EDIT" sketch:type="MSLayerGroup" transform="translate(289.000000, 703.000000)">
                <g id="btn-edit" transform="translate(261.000000, 298.000000)" sketch:type="MSShapeGroup">
                    <path d="M18.9470063,29.6127873 L22.3879698,33.0537509 L18.3739885,34.6732199 L17.3271291,33.6267686 L18.9470063,29.6127873 L18.9470063,29.6127873 Z M35.6890021,19.6200756 L32.3794571,16.3109388 C32.1782479,16.1105458 31.9117375,16.0003501 31.6272692,16.0003501 C31.342801,16.0007582 31.0762906,16.1117702 30.8783464,16.311755 L18.5503016,28.6389836 C18.4511255,28.7381597 18.3707234,28.8601913 18.3176662,28.9924262 L16.0786523,34.5397606 C15.9174401,34.9352408 16.0084536,35.3866352 16.3112877,35.6886531 C16.5084157,35.8861891 16.7818643,35.9996499 17.0602105,35.9996499 L17.0626593,35.9996499 C17.1985674,35.9996499 17.3320267,35.9735295 17.4589558,35.9225129 L23.0111879,33.6822746 C23.1466878,33.6263605 23.2658624,33.5463666 23.360141,33.4488229 L35.6306392,21.1791411 L35.6906346,21.1195537 C35.8873544,20.9203852 36.000407,20.6473446 35.9999989,20.3702228 C35.9999989,20.0943254 35.8873544,19.821693 35.6890021,19.6200756 Z M22.1104399,31.6220227 C22.1414579,31.604473 22.1732922,31.588964 22.1998208,31.5628435 L32.8590126,20.9036517 C33.0181842,20.7444801 33.0181842,20.4861324 32.8590126,20.3265526 C32.6994328,20.167381 32.4410851,20.167381 32.2819135,20.3265526 L21.6227217,30.9857444 C21.5961931,31.0118649 21.5810922,31.0441073 21.5635425,31.0747172 L22.1104399,31.6220227 Z"></path>
                </g>
            </g>
        </g>
    </g>
</svg>