<svg width="24px" height="24px" viewBox="0 0 24 24" version="1.1" xmlns="http://www.w3.org/2000/svg" xmlns:xlink="http://www.w3.org/1999/xlink">
    <path d="M11.7250317,3.2476446 C10.5375662,1.8293196 8.8250931,1 7.0443298,1 C3.711597,1 1,3.935603 1,7.5450281 C1,8.9680652 1.4132206,10.3204216 2.1992096,11.4607361 L10.5841079,22.2041947 C10.8416095,22.5340377 11.2182927,22.7272315 11.6193342,22.7272315 C12.0203756,22.7272315 12.3957539,22.5434618 12.6545605,22.2183308 L21.0438084,11.7481707 C21.9524587,10.5701599 22.4531081,9.0811542 22.4531081,7.5450281 C22.4531081,3.935603 19.7410761,1 16.4074734,1 C14.6258402,1 12.9129321,1.8293196 11.7250317,3.2476446 L11.7250317,3.2476446 L11.7250317,3.2476446 Z" class="favorite" stroke="#9E9F9E" stroke-width="2" fill="none"></path>
</svg>