<?xml version="1.0" encoding="UTF-8" standalone="no"?>
<svg width="17px" height="20px" viewBox="0 0 17 20" version="1.1" xmlns="http://www.w3.org/2000/svg" xmlns:xlink="http://www.w3.org/1999/xlink" xmlns:sketch="http://www.bohemiancoding.com/sketch/ns">
    <!-- Generator: Sketch 3.2 (9961) - http://www.bohemiancoding.com/sketch -->
    <title>icon-ios</title>
    <desc>Created with Sketch.</desc>
    <defs></defs>
    <g id="Detail" stroke="none" stroke-width="1" fill="none" fill-rule="evenodd" sketch:type="MSPage">
        <g id="appalog-locked" sketch:type="MSArtboardGroup" transform="translate(-666.000000, -427.000000)" fill="#AEB2AE">
            <g id="APP-HEADER-FULL" sketch:type="MSLayerGroup" transform="translate(-2.000000, 182.000000)">
                <g id="APP-NAME" transform="translate(548.000000, 51.000000)" sketch:type="MSShapeGroup">
                    <path d="M137,208.673238 C136.535391,209.714364 136.312104,210.178228 135.714047,211.098663 C134.880243,212.383491 133.703803,213.982315 132.246367,213.996573 C130.950578,214.008841 130.618105,213.14411 128.86033,213.15472 C127.101899,213.164004 126.734999,214.011162 125.439537,213.999888 C123.982102,213.986294 122.866975,212.541318 122.032516,211.257153 C119.697996,207.665601 119.454052,203.449043 120.893782,201.208302 C121.917101,199.615446 123.530609,198.683739 125.048374,198.683739 C126.593682,198.683739 127.56454,199.54018 128.841969,199.54018 C130.081035,199.54018 130.836147,198.681749 132.62212,198.681749 C133.972666,198.681749 135.402887,199.425458 136.4226,200.710949 C133.082138,202.561102 133.625111,207.383105 137,208.673238 Z M131.266656,197.247715 C131.915862,196.404867 132.409324,195.215531 132.230301,194 C131.169931,194.074603 129.929881,194.755976 129.20559,195.644912 C128.548514,196.452613 128.006525,197.648581 128.217681,198.812387 C129.374777,198.848197 130.572202,198.14925 131.266656,197.247715 Z" id="icon-ios"></path>
                </g>
            </g>
        </g>
    </g>
</svg>