<?xml version="1.0" encoding="UTF-8" standalone="no"?>
<svg width="27px" height="27px" viewBox="0 0 27 27" version="1.1" xmlns="http://www.w3.org/2000/svg" xmlns:xlink="http://www.w3.org/1999/xlink">
    <g id="Advanced-Search" stroke="none" stroke-width="1" fill="none" fill-rule="evenodd">
        <g id="Adv-Search" transform="translate(-310.000000, -145.000000)" stroke="#FFFFFF" stroke-width="0.25" fill="#FFFFFF">
            <g id="SEARCH" transform="translate(289.000000, 123.000000)">
                <path d="M32.3074062,41.310311 C27.8939369,41.310311 24.3045014,37.7208755 24.3045014,33.3074062 C24.3045014,28.8939369 27.8939369,25.3045014 32.3074062,25.3045014 C36.7197116,25.3045014 40.3114749,28.8939369 40.3114749,33.3074062 C40.3114749,37.7208755 36.7197116,41.310311 32.3074062,41.310311 L32.3074062,41.310311 Z M42.6159762,33.3074062 C42.6159762,27.6241333 37.990679,23 32.3074062,23 C26.6229694,23 22,27.6241333 22,33.3074062 C22,38.990679 26.6229694,43.6148123 32.3074062,43.6148123 C34.734116,43.6148123 36.9641284,42.7663368 38.7274211,41.3580304 L45.4232779,48.0515595 C45.6479086,48.277354 45.9423727,48.3890874 46.2380006,48.3890874 C46.5324647,48.3890874 46.8269288,48.277354 47.0527233,48.0515595 C47.5019847,47.6022981 47.5019847,46.8725393 47.0527233,46.4232779 L40.3568666,39.728585 C41.7663368,37.9652923 42.6159762,35.7352799 42.6159762,33.3074062 Z" id="Fill-179"></path>
            </g>
        </g>
    </g>
</svg>