<svg width="13px" height="13px" viewBox="0 0 13 13" version="1.1" xmlns="http://www.w3.org/2000/svg" xmlns:xlink="http://www.w3.org/1999/xlink">
<path d="M4.4488559,11.394225 L1.4749796,9.707741 L1.4749796,1.613657 L4.4488559,3.300141 L4.4488559,11.394225 L4.4488559,11.394225 Z M8.3821782,6.8994189 C8.2572786,6.8994189 8.1563199,7.0006034 8.1563199,7.1252772 L8.1563199,9.6133323 L4.9005725,9.6133323 L4.9005725,3.1686914 C4.9005725,3.0873824 4.856756,3.0121716 4.7860623,2.9721947 L2.1051243,1.4517166 L8.1563199,1.4517166 L8.1563199,4.5888884 C8.1563199,4.7135622 8.2572786,4.8147467 8.3821782,4.8147467 C8.506852,4.8147467 8.6080365,4.7135622 8.6080365,4.5888884 L8.6080365,1.2258583 C8.6080365,1.1011845 8.506852,1 8.3821782,1 L1.2258579,1 C1.1009583,1 0.9999996,1.1011845 0.9999996,1.2258583 L0.9999996,9.8391906 C0.9999996,9.9439888 1.072726,10.028234 1.1696192,10.0537559 L4.5633661,11.9785204 C4.5979224,11.9979442 4.6363183,12.007882 4.6747142,12.007882 C4.7140135,12.007882 4.753087,11.9974925 4.7883209,11.9771653 C4.8576594,11.9367366 4.9005725,11.8624292 4.9005725,11.7820237 L4.9005725,10.0650489 L8.3821782,10.0650489 C8.506852,10.0650489 8.6080365,9.9640902 8.6080365,9.8391906 L8.6080365,7.1252772 C8.6080365,7.0006034 8.506852,6.8994189 8.3821782,6.8994189 L8.3821782,6.8994189 Z M11.9261209,5.9440383 C11.9374138,5.9167094 11.943512,5.8873478 11.943512,5.8570828 C11.943512,5.8270437 11.9374138,5.7976821 11.9261209,5.7703532 C11.9146021,5.7427985 11.8981145,5.7179541 11.8773355,5.697401 L10.3173322,4.1373977 C10.2290216,4.049313 10.0862791,4.049313 9.9979685,4.1373977 C9.909658,4.2257083 9.909658,4.3686766 9.9979685,4.4567613 L11.1724317,5.6312245 L6.1412122,5.6312245 C6.0163125,5.6312245 5.9153539,5.732409 5.9153539,5.8570828 C5.9153539,5.9819825 6.0163125,6.0829411 6.1412122,6.0829411 L11.1724317,6.0829411 L9.9979685,7.2574043 C9.909658,7.3457149 9.909658,7.4886832 9.9979685,7.5767679 C10.0420109,7.6210362 10.0998306,7.6429444 10.1576504,7.6429444 C10.2154701,7.6429444 10.2732898,7.6210362 10.3173322,7.5767679 L11.8773355,6.0169905 C11.8981145,5.9962115 11.9146021,5.971593 11.9261209,5.9440383 L11.9261209,5.9440383 Z" id="icon-sign-out" stroke="#000000" stroke-width="0.25" fill="#000000" transform="translate(6.471756, 6.503941) scale(-1, 1) translate(-6.471756, -6.503941) "></path>
</svg>