<svg width="11px" height="11px" viewBox="0 0 11 11" version="1.1" xmlns="http://www.w3.org/2000/svg" xmlns:xlink="http://www.w3.org/1999/xlink">
<path d="M5.4996647,7.1672085 C4.5792543,7.1672085 3.8334044,6.4207639 3.8334044,5.5 C3.8334044,4.5792361 4.5792543,3.8350264 5.4996647,3.8350264 C6.4200752,3.8350264 7.1661485,4.5792361 7.1661485,5.5 C7.1661485,6.4207639 6.4200752,7.1672085 5.4996647,7.1672085 L5.4996647,7.1672085 L5.4996647,7.1672085 Z M10.4164178,4.9167005 L9.4434827,4.6596912 C9.4144265,4.5233645 9.377771,4.3870378 9.3348573,4.2551808 L10.0496393,3.546729 C10.2796302,3.3031288 10.4240171,3.0304754 10.2630905,2.7511174 C10.1019405,2.4717594 9.7736056,2.4583503 9.4658336,2.5365705 L8.4946866,2.8002844 C8.4012598,2.6974807 8.3024688,2.5991467 8.198984,2.5052824 L8.4638423,1.5353515 C8.540953,1.2090614 8.529107,0.8984153 8.2499441,0.7375051 C7.9710048,0.5765949 7.6799959,0.7308005 7.4526872,0.952052 L6.7443869,1.6649736 C6.613187,1.6225112 6.477517,1.5889882 6.3407295,1.559935 L6.0834705,0.5832995 C5.9869146,0.2637139 5.8221884,0 5.5001118,0 C5.1778116,0 5.002804,0.279358 4.916306,0.5832995 L4.6592705,1.559935 C4.522483,1.5889882 4.38726,1.6225112 4.2556131,1.6649736 L3.5473128,0.9498171 C3.3027939,0.721861 3.0289952,0.5765949 2.7498324,0.7375051 C2.4706695,0.8984153 2.458153,1.2269403 2.5363812,1.5353515 L2.8012395,2.5052824 C2.6973077,2.5991467 2.5985167,2.6974807 2.5050899,2.8002844 L1.5339429,2.5365705 C1.2076196,2.4605851 0.897836,2.4717594 0.736686,2.7511174 C0.5755359,3.0304754 0.7288632,3.3210077 0.9503607,3.546729 L1.6646957,4.2551808 C1.6220055,4.3870378 1.58535,4.5233645 1.5562938,4.6596912 L0.5831352,4.9167005 C0.2623997,5.0127997 0,5.1781796 0,5.5 C0,5.8218204 0.2780453,5.9983746 0.5831352,6.0832995 L1.5562938,6.3403088 C1.58535,6.4766355 1.6220055,6.6129622 1.6646957,6.7448192 L0.9503607,7.453271 C0.7201463,7.6968712 0.5755359,7.9717594 0.736686,8.2511174 C0.897836,8.5282406 1.2266179,8.5416497 1.5339429,8.4634295 L2.5050899,8.1997156 C2.5985167,8.3025193 2.6973077,8.4008533 2.8012395,8.4947176 L2.5363812,9.4668834 C2.459047,9.7931735 2.4706695,10.1015847 2.7496089,10.2624949 C3.0289952,10.4234051 3.3197806,10.2714344 3.5468658,10.0501829 L4.2553896,9.3350264 C4.3874835,9.3774888 4.522483,9.4132466 4.6599411,9.4445347 L4.916306,10.4167005 C5.0126384,10.7362861 5.1778116,11 5.5001118,11 C5.8221884,11 5.997196,10.720642 6.0834705,10.4167005 L6.3398354,9.4422999 C6.477517,9.4132466 6.612293,9.3774888 6.7443869,9.3350264 L7.4529107,10.0501829 C7.6967591,10.2803738 7.9710048,10.4234051 8.2501676,10.2624949 C8.529107,10.1015847 8.5414,9.7730597 8.4638423,9.4668834 L8.1987605,8.4947176 C8.3024688,8.4008533 8.4012598,8.3025193 8.4946866,8.1997156 L9.4658336,8.4634295 C9.7923804,8.5394149 10.1019405,8.5282406 10.263314,8.2488826 C10.4240171,7.9695246 10.2709133,7.6812271 10.0496393,7.453271 L9.3348573,6.7448192 C9.377771,6.6129622 9.4144265,6.4766355 9.4434827,6.3403088 L10.4164178,6.0832995 C10.7378238,5.9872003 11,5.8218204 11,5.5 C11,5.1781796 10.7215077,5.0016254 10.4164178,4.9167005 L10.4164178,4.9167005 L10.4164178,4.9167005 Z" class="icon-edit-profile" fill="#000000"></path>
</svg>