<?xml version="1.0" encoding="UTF-8" standalone="no"?>
<svg width="17px" height="20px" viewBox="0 0 17 20" version="1.1" xmlns="http://www.w3.org/2000/svg" xmlns:xlink="http://www.w3.org/1999/xlink" xmlns:sketch="http://www.bohemiancoding.com/sketch/ns">
    <!-- Generator: Sketch 3.2 (9961) - http://www.bohemiancoding.com/sketch -->
    <title>icon-android-os</title>
    <desc>Created with Sketch.</desc>
    <defs></defs>
    <g id="Detail" stroke="none" stroke-width="1" fill="none" fill-rule="evenodd" sketch:type="MSPage">
        <g id="appalog-locked" sketch:type="MSArtboardGroup" transform="translate(-547.000000, -427.000000)" fill="#AEB2AE">
            <g id="APP-HEADER-FULL" sketch:type="MSLayerGroup" transform="translate(-2.000000, 182.000000)">
                <g id="APP-NAME" transform="translate(548.000000, 51.000000)" sketch:type="MSShapeGroup">
                    <path d="M16.7910581,200.266871 C16.1235198,200.266871 15.5817548,200.820168 15.5817548,201.502969 L15.5817548,206.332773 C15.5817548,207.015209 16.1235198,207.568507 16.7910581,207.568507 C17.4585964,207.568507 18,207.015209 18,206.332773 L18,201.502969 C18,200.820168 17.4585964,200.266871 16.7910581,200.266871 L16.7910581,200.266871 Z M2.20858048,200.266871 C1.54140358,200.266871 1,200.820168 1,201.502969 L1,206.332773 C1,207.015209 1.54140358,207.568507 2.20858048,207.568507 C2.87648022,207.568507 3.41788379,207.015209 3.41788379,206.332773 L3.41788379,201.502969 C3.41788379,200.820168 2.87648022,200.266871 2.20858048,200.266871 Z M4.14505602,200.304703 L4.14505602,209.127998 C4.14505602,209.652558 4.56683037,210.07708 5.08763314,210.07708 L6.16429619,210.07708 L6.16429619,212.763902 C6.16429619,213.446339 6.70606119,214 7.37359951,214 C8.04222208,214 8.58290282,213.446339 8.58290282,212.763902 L8.58290282,210.07708 L10.4648043,210.07708 L10.4648043,212.763902 C10.4648043,213.446339 11.0062079,214 11.6741076,214 C12.3412845,214 12.8826881,213.446339 12.8826881,212.763902 L12.8826881,210.07708 L13.9597126,210.07708 C14.4801539,210.07708 14.9019283,209.652558 14.9019283,209.127998 L14.9019283,200.304703 L4.14505602,200.304703 Z M12.0496205,195.73245 L13.0435189,194.280635 C13.1020686,194.194057 13.0879733,194.081288 13.0106299,194.027449 C12.9332866,193.974339 12.8230542,194.00053 12.7637817,194.086744 L11.7319344,195.59458 C11.0521079,195.325752 10.2952994,195.175514 9.49945787,195.175514 C8.7036163,195.175514 7.94789208,195.325752 7.26770415,195.59458 L6.23513404,194.086744 C6.17730723,194.00053 6.0659906,193.974339 5.98937007,194.027449 C5.91166528,194.081288 5.89757,194.194057 5.95575823,194.280635 L6.95001807,195.73245 C5.37026171,196.472726 4.26251674,197.877251 4.12156388,199.518591 L14.8784361,199.518591 C14.7374833,197.877251 13.6297383,196.472726 12.0496205,195.73245 Z M7.23047813,198.020577 C6.90158811,198.020577 6.63558475,197.752841 6.63558475,197.422172 C6.63558475,197.090412 6.90158811,196.822311 7.23047813,196.822311 C7.55936816,196.822311 7.82609435,197.090412 7.82609435,197.422172 C7.82609435,197.752841 7.55936816,198.020577 7.23047813,198.020577 L7.23047813,198.020577 Z M11.8436125,198.020577 C11.514361,198.020577 11.2483577,197.752841 11.2483577,197.422172 C11.2483577,197.090412 11.514361,196.822311 11.8436125,196.822311 C12.1721411,196.822311 12.4381444,197.090412 12.4381444,197.422172 C12.4381444,197.752841 12.1721411,198.020577 11.8436125,198.020577 L11.8436125,198.020577 Z" id="icon-android-os"></path>
                </g>
            </g>
        </g>
    </g>
</svg>