<svg width="27px" height="27px" viewBox="0 0 27 27" version="1.1" xmlns="http://www.w3.org/2000/svg" xmlns:xlink="http://www.w3.org/1999/xlink">
<g class="icon-share" transform="translate(1.170763, 1.000000)" stroke="#000000" stroke-width="0.5" fill="#000000">
    <path d="M16.8934115,9.1291276 L13.0229874,9.1291276 L13.0229874,5.19534674 C13.0229874,4.91501534 12.7991364,4.6875 12.5233199,4.6875 C12.2470038,4.6875 12.0236525,4.91501534 12.0236525,5.19534674 L12.0236525,9.1291276 L8.15272868,9.1291276 C7.87691225,9.1291276 7.65306122,9.35664294 7.65306122,9.63697434 C7.65306122,9.91781359 7.87691225,10.1448211 8.15272868,10.1448211 L12.0236525,10.1448211 L12.0236525,14.0791098 C12.0236525,14.3594412 12.2470038,14.5869565 12.5233199,14.5869565 C12.7991364,14.5869565 13.0229874,14.3594412 13.0229874,14.0791098 L13.0229874,10.1448211 L16.8934115,10.1448211 C17.1692279,10.1448211 17.393079,9.91781359 17.393079,9.63697434 C17.393079,9.35664294 17.1692279,9.1291276 16.8934115,9.1291276" class="plus"></path>
    <path d="M16.427551,17.6588542 L13.9056122,17.6588542 C13.7816327,17.6588542 13.6612245,17.7052083 13.5683673,17.7885417 L7.53979592,23.209375 L7.53979592,18.040625 C7.53979592,17.7911458 7.36683673,17.5770833 7.12704082,17.5291667 C3.58877551,16.8291667 1.02040816,13.3890625 1.02040816,9.35 C1.02040816,4.76875 4.34030612,1.04166667 8.42091837,1.04166667 L16.427551,1.04166667 C20.5081633,1.04166667 23.8280612,4.76875 23.8280612,9.35 C23.8280612,13.9317708 20.5081633,17.6588542 16.427551,17.6588542 L16.427551,17.6588542 L16.427551,17.6588542 Z M16.427551,0 L8.42091837,0 C3.77806122,0 0,4.19427083 0,9.35 C0,13.7296875 2.71734694,17.4880208 6.51938776,18.4588542 L6.51938776,24.3625 C6.51938776,24.5671875 6.63673469,24.7526042 6.81989796,24.8369792 C6.88673469,24.8677083 6.95867347,24.8833333 7.02959184,24.8833333 C7.15153061,24.8833333 7.27193878,24.8385417 7.36683673,24.753125 L14.0979592,18.7005208 L16.427551,18.7005208 C21.0709184,18.7005208 24.8484694,14.5057292 24.8484694,9.35 C24.8484694,4.19427083 21.0709184,0 16.427551,0 L16.427551,0 L16.427551,0 Z" class="bubble"></path>
</g>
</svg>