<?xml version="1.0" encoding="UTF-8" standalone="no"?>
<svg width="33px" height="32px" viewBox="0 0 33 32" version="1.1" xmlns="http://www.w3.org/2000/svg" xmlns:xlink="http://www.w3.org/1999/xlink" xmlns:sketch="http://www.bohemiancoding.com/sketch/ns">
    <!-- Generator: Sketch 3.1.1 (8761) - http://www.bohemiancoding.com/sketch -->
    <title>icon-signup</title>
    <desc>Created with Sketch.</desc>
    <defs></defs>
    <g id="Detail" stroke="none" stroke-width="1" fill="none" fill-rule="evenodd" sketch:type="MSPage">
        <g id="appalog-locked" sketch:type="MSArtboardGroup" transform="translate(-289.000000, -221.000000)" fill="#0096F7">
            <g id="CTA-TOP" sketch:type="MSLayerGroup" transform="translate(-1.000000, 191.000000)">
                <g id="icon-signup" transform="translate(290.000000, 30.000000)" sketch:type="MSShapeGroup">
                    <path d="M30.5703858,21.971568 C29.8737053,22.6709102 28.947046,23.0579249 27.9617118,23.0579249 C27.437684,23.0579249 26.9089352,22.9424995 26.4327915,22.7320178 C26.1792079,22.6165924 25.8770657,22.6709102 25.6787849,22.8678124 L23.7775823,24.7825164 L21.6349356,24.7281986 L21.618075,24.7281986 C21.282886,24.7281986 20.9969301,24.9794186 20.9503948,25.3121154 L20.5754148,28.0008487 L18.5824904,28.3946531 C18.3289068,28.4421812 18.125905,28.6322937 18.0598114,28.8835137 L17.6153656,30.5673669 L16.0560962,30.6284744 L15.7694658,29.9427116 L24.3285871,21.3265436 C24.5140538,21.1432209 24.574752,20.8648419 24.4850535,20.6136219 C23.9933981,19.2556758 24.3292615,17.7279864 25.3402238,16.7095268 C26.0389276,16.0033949 26.9676101,15.6163802 27.955642,15.6163802 C28.9429995,15.6163802 29.8710076,16.0033949 30.5703858,16.7095268 C32.0116309,18.1557394 32.0116309,20.5185657 30.5703858,21.971568 L30.5703858,21.971568 Z M31.524022,15.7453851 C30.5710602,14.7880331 29.3038166,14.2584341 27.955642,14.2584341 C26.6074674,14.2584341 25.3402238,14.7880331 24.3865876,15.7453851 C23.109902,17.0286442 22.6209442,18.9161893 23.0856227,20.66115 L14.4948035,29.3112667 C14.3005693,29.5013792 14.2432432,29.8001273 14.3504767,30.0513473 L14.9952265,31.5858264 C15.1011111,31.8370465 15.3459272,32 15.6163714,32 L15.6413252,32 L18.1636728,31.9049438 C18.4597451,31.898154 18.7140031,31.6876724 18.7908875,31.4025037 L19.2548916,29.6439635 L21.3058165,29.2433694 C21.5884003,29.1822618 21.8042162,28.9582007 21.8446816,28.6662423 L22.2021266,26.0997242 L24.0338636,26.1472523 C24.2463073,26.154042 24.3967039,26.079355 24.5275423,25.9435604 L26.3201626,24.1442818 C26.8462137,24.3208148 27.405986,24.415871 27.9617118,24.415871 C29.3071887,24.415871 30.572409,23.8930617 31.524022,22.9357097 C33.4919927,20.9531084 33.4919927,17.7279864 31.524022,15.7453851 L31.524022,15.7453851 Z" id="Fill-426"></path>
                    <path d="M27.4131095,18.632718 C27.010478,19.0401018 27.010478,19.6987057 27.4131095,20.0992998 C27.8150665,20.5066836 28.467235,20.5066836 28.8698664,20.0992998 C29.2718234,19.6987057 29.2718234,19.0401018 28.8698664,18.632718 C28.467235,18.2321239 27.8150665,18.2321239 27.4131095,18.632718" id="Fill-427"></path>
                    <path d="M13.640181,27.1181837 L1.76289127,27.1181837 C1.60844807,27.1181837 1.48300511,26.9823891 1.48300511,26.8194356 L1.48300511,23.3974114 C1.48300511,23.2684065 1.55651738,23.1597708 1.66577415,23.1190325 C9.93152075,19.9007002 11.3376958,18.5223849 11.6236518,17.5989815 C11.6432101,17.5310842 11.6540009,17.4631869 11.6540009,17.3952896 L11.6540009,16.0237641 C11.6540009,15.8472311 11.5845352,15.6774878 11.4611155,15.5484829 C10.6295501,14.6929769 9.98547471,13.504774 9.59835505,12.1060895 C9.55654073,11.9567155 9.46414458,11.8277106 9.33735277,11.7394441 C8.93741905,11.4542754 8.69867278,10.985784 8.69867278,10.4765542 C8.69867278,10.028432 8.88818606,9.70252493 9.04735024,9.50562275 C9.14514179,9.3834076 9.19842133,9.23403352 9.19842133,9.07786972 L9.19842133,6.00891152 C9.19842133,3.00785063 11.0031813,1.35794611 14.2795355,1.35794611 C17.602425,1.35794611 19.3586263,2.96711224 19.3586263,6.00891152 L19.3586263,9.07107999 C19.3586263,9.22724379 19.4119059,9.3834076 19.5096974,9.50562275 C19.669536,9.70252493 19.8603982,10.028432 19.8603982,10.4765542 C19.8603982,10.985784 19.6209775,11.4542754 19.2210437,11.7394441 C19.0935775,11.8277106 19.0005069,11.9567155 18.959367,12.1128793 C18.5722474,13.504774 17.928172,14.6929769 17.097281,15.5484829 C16.9738613,15.6774878 16.90507,15.8472311 16.90507,16.0237641 L16.90507,17.3952896 C16.90507,17.4631869 16.9151864,17.5310842 16.9354191,17.5989815 C17.0325363,17.9113091 17.2341892,18.5631233 20.5874278,20.3488224 C20.9178958,20.5253554 21.3238993,20.3963505 21.4985753,20.0636537 C21.6732512,19.7309569 21.5471338,19.3235731 21.2180147,19.1470401 C18.9519484,17.9384681 18.3773387,17.3749204 18.253919,17.2323361 L18.253919,16.2953533 C19.1057171,15.344791 19.772723,14.10906 20.1955871,12.6967961 C20.8342671,12.1536177 21.2092471,11.33885 21.2092471,10.4765542 C21.2092471,9.89263739 21.0365945,9.33587948 20.7074753,8.84701888 L20.7074753,6.00891152 C20.7074753,2.18629323 18.3651991,0 14.2795355,0 C10.2532212,0 7.84957234,2.24740081 7.84957234,6.00891152 L7.84957234,8.85380861 C7.52517416,9.33587948 7.34982379,9.89942712 7.34982379,10.4765542 C7.34982379,11.33885 7.72345496,12.1468279 8.36213495,12.6900064 C8.78567354,14.10906 9.45200494,15.344791 10.3051519,16.2953533 L10.3051519,17.259495 C10.0920338,17.6465097 8.78365026,18.8890303 1.17951409,21.8493529 C0.554322581,22.0937832 0.134156121,22.7116486 0.134156121,23.3974114 L0.134156121,26.8194356 C0.134156121,27.7292595 0.864557848,28.4761299 1.76289127,28.4761299 L13.640181,28.4761299 C14.0131378,28.4761299 14.3146055,28.170592 14.3146055,27.7971568 C14.3146055,27.4169319 14.0131378,27.1181837 13.640181,27.1181837" id="Fill-428"></path>
                </g>
            </g>
        </g>
    </g>
</svg>