<?xml version="1.0" encoding="UTF-8" standalone="no"?>
<svg width="88px" height="88px" viewBox="0 0 88 88" version="1.1" xmlns="http://www.w3.org/2000/svg" xmlns:xlink="http://www.w3.org/1999/xlink" xmlns:sketch="http://www.bohemiancoding.com/sketch/ns">
    <!-- Generator: Sketch 3.1 (8751) - http://www.bohemiancoding.com/sketch -->
    <title>play-orange</title>
    <desc>Created with Sketch.</desc>
    <defs></defs>
    <g id="Page-1" stroke="none" stroke-width="1" fill="none" fill-rule="evenodd" sketch:type="MSPage">
        <path d="M44,80.5630493 C23.8063633,80.5630493 7.43695068,64.1936367 7.43695068,44 C7.43695068,23.8063633 23.8063633,7.43695068 44,7.43695068 C64.1936367,7.43695068 80.5630493,23.8063633 80.5630493,44 C80.5630493,64.1936367 64.1936367,80.5630493 44,80.5630493 L44,80.5630493 Z M44,0.666015625 C20.0660988,0.666015625 0.666015625,20.0660988 0.666015625,44 C0.666015625,67.9339012 20.0660988,87.3339844 44,87.3339844 C67.9339012,87.3339844 87.3339844,67.9339012 87.3339844,44 C87.3339844,20.0660988 67.9339012,0.666015625 44,0.666015625 Z M58.2502441,44 L35.1665039,30.4581299 L35.1665039,57.5418701 L58.2502441,44 Z" id="play-orange" fill="#FB7200" sketch:type="MSShapeGroup"></path>
    </g>
</svg>