<?xml version="1.0" encoding="UTF-8" standalone="no"?>
<svg width="23px" height="24px" viewBox="0 0 23 24" version="1.1" xmlns="http://www.w3.org/2000/svg" xmlns:xlink="http://www.w3.org/1999/xlink" xmlns:sketch="http://www.bohemiancoding.com/sketch/ns">
    <!-- Generator: Sketch 3.1.1 (8761) - http://www.bohemiancoding.com/sketch -->
    <title>share-google-plus</title>
    <desc>Created with Sketch.</desc>
    <defs></defs>
    <g id="Detail" stroke="none" stroke-width="1" fill="none" fill-rule="evenodd" sketch:type="MSPage">
        <g id="appalog-unlocked" sketch:type="MSArtboardGroup" transform="translate(-1131.000000, -147.000000)" fill="#818485">
            <g id="SEARCH" sketch:type="MSLayerGroup" transform="translate(289.000000, 123.000000)">
                <g id="SHARE" transform="translate(681.000000, 0.000000)" sketch:type="MSShapeGroup">
                    <path d="M183.535882,34.0449729 L180.715975,34.0449729 L180.715975,31.225066 L178.4474,31.225066 L178.4474,34.0449729 L175.628868,34.0449729 L175.628868,36.3135474 L178.4474,36.3135474 L178.4474,39.1334542 L180.715975,39.1334542 L180.715975,36.3135474 L183.535882,36.3135474 L183.535882,34.0449729 L183.535882,34.0449729 Z M172.998697,37.4602087 C172.344247,36.9968695 171.093094,35.8694567 171.093094,35.206758 C171.093094,34.4299431 171.315827,34.0490976 172.483112,33.1361682 C173.680644,32.1984907 174.528953,30.8827175 174.528953,29.3538358 C174.528953,27.5321017 173.717766,25.7571141 172.194384,25.1700345 L174.490456,25.1700345 L176.111456,24 L168.868516,24 C165.622392,24 162.567379,26.4596847 162.567379,29.3070894 C162.567379,32.2191141 164.780957,34.5701822 168.083452,34.5701822 C168.313059,34.5701822 168.535792,34.5646827 168.7544,34.5495588 C168.539917,34.9592771 168.385929,35.4226163 168.385929,35.9010793 C168.385929,36.7108916 168.82177,37.3667159 169.371727,37.9029244 C168.956509,37.9029244 168.553666,37.9152984 168.117824,37.9152984 C164.09626,37.9152984 161,40.4753504 161,43.1316449 C161,45.7466926 164.393237,47.382816 168.414801,47.382816 C172.998697,47.382816 175.531251,44.7828921 175.531251,42.1664696 C175.531251,40.0683819 174.912549,38.813104 172.998697,37.4602087 L172.998697,37.4602087 Z M169.131121,33.8304895 C167.26539,33.7754937 165.491777,31.7434009 165.170052,29.2947154 C164.846952,26.84328 166.09948,24.9693 167.965211,25.0242958 C169.829567,25.0806664 171.60318,27.0453894 171.924905,29.4954498 C172.24663,31.9455103 170.996852,33.8868601 169.131121,33.8304895 L169.131121,33.8304895 Z M168.399678,46.2265305 C165.619643,46.2265305 163.612298,44.4680415 163.612298,42.3534551 C163.612298,40.2814904 166.103605,38.5573738 168.882265,38.5876214 C169.531215,38.5944959 170.136168,38.6989878 170.684751,38.8763491 C172.193009,39.9267678 173.27505,40.5179721 173.580277,41.7141296 C173.638022,41.9574857 173.669645,42.2063415 173.669645,42.4606968 C173.669645,44.5752832 172.3085,46.2265305 168.399678,46.2265305 L168.399678,46.2265305 Z" id="share-google-plus"></path>
                </g>
            </g>
        </g>
    </g>
</svg>