<?xml version="1.0" encoding="UTF-8" standalone="no"?>
<svg width="27px" height="21px" viewBox="0 0 27 21" version="1.1" xmlns="http://www.w3.org/2000/svg" xmlns:xlink="http://www.w3.org/1999/xlink" xmlns:sketch="http://www.bohemiancoding.com/sketch/ns">
    <!-- Generator: Sketch 3.1.1 (8761) - http://www.bohemiancoding.com/sketch -->
    <title>share-twitter</title>
    <desc>Created with Sketch.</desc>
    <defs></defs>
    <g id="Detail" stroke="none" stroke-width="1" fill="none" fill-rule="evenodd" sketch:type="MSPage">
        <g id="appalog-unlocked" sketch:type="MSArtboardGroup" transform="translate(-990.000000, -148.000000)" fill="#818485">
            <g id="SEARCH" sketch:type="MSLayerGroup" transform="translate(289.000000, 123.000000)">
                <g id="SHARE" transform="translate(681.000000, 0.000000)" sketch:type="MSShapeGroup">
                    <path d="M46.4438678,27.4676746 C45.5013637,27.8862308 44.4865908,28.1692831 43.4221333,28.2957533 C44.5091748,27.6453351 45.3432759,26.6140007 45.7362369,25.385433 C44.7184529,25.9876721 43.5937714,26.425801 42.3923044,26.6606743 C41.4347443,25.6383734 40.066156,25 38.5515247,25 C35.6472268,25 33.2909664,27.3562604 33.2909664,30.2620639 C33.2909664,30.6745977 33.3361343,31.0750867 33.4264702,31.4605197 C29.0527089,31.2407024 25.1757949,29.1479216 22.5786389,25.9605713 C22.125454,26.7404709 21.8664912,27.6453351 21.8664912,28.6089177 C21.8664912,30.4337021 22.7954449,32.0446916 24.2076956,32.9887013 C23.3464937,32.9631062 22.5334709,32.7237161 21.8228288,32.3322607 L21.8228288,32.3970014 C21.8228288,34.9474839 23.637074,37.0748935 26.0460303,37.5566847 C25.6048902,37.6801437 25.1396605,37.7418732 24.6593749,37.7418732 C24.3206154,37.7418732 23.9893839,37.7102557 23.6686916,37.6485262 C24.3386826,39.7382958 26.2809036,41.260455 28.584468,41.3011062 C26.7837732,42.7133568 24.5133319,43.5549859 22.0486685,43.5549859 C21.6240899,43.5549859 21.2040282,43.5308964 20.793,43.4827172 C23.1221596,44.9732589 25.8894482,45.845 28.8599924,45.845 C38.5409856,45.845 43.8331614,37.8276923 43.8331614,30.8733366 C43.8331614,30.6444857 43.8286446,30.4156349 43.8196111,30.1913008 C44.8479343,29.4490412 45.7407537,28.5230986 46.4438678,27.4676746" id="share-twitter"></path>
                </g>
            </g>
        </g>
    </g>
</svg>