<?xml version="1.0" encoding="UTF-8" standalone="no"?>
<svg width="23px" height="21px" viewBox="0 0 23 21" version="1.1" xmlns="http://www.w3.org/2000/svg" xmlns:xlink="http://www.w3.org/1999/xlink" xmlns:sketch="http://www.bohemiancoding.com/sketch/ns">
    <!-- Generator: Sketch 3.1.1 (8761) - http://www.bohemiancoding.com/sketch -->
    <title>share-linkedin</title>
    <desc>Created with Sketch.</desc>
    <defs></defs>
    <g id="App-Wall---Public" stroke="none" stroke-width="1" fill="none" fill-rule="evenodd" sketch:type="MSPage">
        <g id="App-Wall" sketch:type="MSArtboardGroup" transform="translate(-1197.000000, -147.000000)" fill="#818485">
            <g id="SEARCH" sketch:type="MSLayerGroup" transform="translate(289.000000, 123.000000)">
                <g id="SHARE" transform="translate(681.000000, 0.000000)" sketch:type="MSShapeGroup">
                    <path d="M249.651722,44.7991496 L244.645382,44.7991496 L244.645382,37.4874168 C244.645382,35.5735807 243.862268,34.267058 242.140215,34.267058 C240.823037,34.267058 240.090532,35.1487277 239.749584,35.9984337 C239.621729,36.3034222 239.641706,36.7282751 239.641706,37.1531281 L239.641706,44.7991496 L234.681981,44.7991496 C234.681981,44.7991496 234.745909,31.8471274 234.681981,30.669792 L239.641706,30.669792 L239.641706,32.8872847 C239.934708,31.9177143 241.519583,30.5339456 244.048723,30.5339456 C247.186509,30.5339456 249.651722,32.5663143 249.651722,36.9426993 L249.651722,44.7991496 L249.651722,44.7991496 Z M229.666319,28.9024569 L229.634355,28.9024569 C228.036162,28.9024569 227,27.8223448 227,26.4532262 C227,25.057471 228.066794,24 229.696951,24 C231.325776,24 232.32731,25.0548074 232.359274,26.4492307 C232.359274,27.8183494 231.325776,28.9024569 229.666319,28.9024569 L229.666319,28.9024569 Z M227.571354,30.669792 L231.986362,30.669792 L231.986362,44.7991496 L227.571354,44.7991496 L227.571354,30.669792 Z" id="share-linkedin"></path>
                </g>
            </g>
        </g>
    </g>
</svg>