<?xml version="1.0" encoding="UTF-8" standalone="no"?>
<svg width="12px" height="23px" viewBox="0 0 12 23" version="1.1" xmlns="http://www.w3.org/2000/svg" xmlns:xlink="http://www.w3.org/1999/xlink" xmlns:sketch="http://www.bohemiancoding.com/sketch/ns">
    <!-- Generator: Sketch 3.3.1 (12002) - http://www.bohemiancoding.com/sketch -->
    <title>social-facebook</title>
    <desc>Created with Sketch.</desc>
    <defs></defs>
    <g id="Landing-Page" stroke="none" stroke-width="1" fill="none" fill-rule="evenodd" sketch:type="MSPage">
        <g id="social-connect-landing-page_C2" sketch:type="MSArtboardGroup" transform="translate(-749.000000, -2716.000000)" fill="#231F20">
            <g id="FOOTER" sketch:type="MSLayerGroup" transform="translate(-2.500000, 2608.000000)">
                <g id="Social" transform="translate(712.000000, 108.000000)" sketch:type="MSShapeGroup">
                    <path d="M40.3653871,7.59894444 L42.5499516,7.59894444 L42.5499516,5.41522222 C42.5499516,4.45177778 42.5735484,2.967 43.2528871,2.047 C43.9694839,1.07205556 44.9518548,0.410166667 46.643371,0.410166667 C49.3979839,0.410166667 50.5579516,0.813944444 50.5579516,0.813944444 L50.0127419,4.14255556 C50.0127419,4.14255556 49.1024032,3.87294444 48.2529194,3.87294444 C47.4034355,3.87294444 46.643371,4.186 46.643371,5.05872222 L46.643371,7.59894444 L50.1257581,7.59894444 L49.8823387,10.8496111 L46.643371,10.8496111 L46.643371,22.1464444 L42.5499516,22.1464444 L42.5499516,10.8496111 L40.3653871,10.8496111 L40.3653871,7.59894444" id="social-facebook"></path>
                </g>
            </g>
        </g>
    </g>
</svg>