<?xml version="1.0" encoding="UTF-8" standalone="no"?>
<svg width="24px" height="21px" viewBox="0 0 24 21" version="1.1" xmlns="http://www.w3.org/2000/svg" xmlns:xlink="http://www.w3.org/1999/xlink" xmlns:sketch="http://www.bohemiancoding.com/sketch/ns">
    <!-- Generator: Sketch 3.3.1 (12002) - http://www.bohemiancoding.com/sketch -->
    <title>social-twitter</title>
    <desc>Created with Sketch.</desc>
    <defs></defs>
    <g id="Landing-Page" stroke="none" stroke-width="1" fill="none" fill-rule="evenodd" sketch:type="MSPage">
        <g id="social-connect-landing-page_C2" sketch:type="MSArtboardGroup" transform="translate(-709.000000, -2717.000000)" fill="#231F20">
            <g id="FOOTER" sketch:type="MSLayerGroup" transform="translate(-2.500000, 2608.000000)">
                <g id="Social" transform="translate(712.000000, 108.000000)" sketch:type="MSShapeGroup">
                    <path d="M23.5829749,3.43211111 C22.7191398,3.83614444 21.7890681,4.10694815 20.8134588,4.23004074 C21.809767,3.60444074 22.5742473,2.61101111 22.9344086,1.43077037 C22.0015771,2.01002963 20.9707706,2.42999259 19.8695878,2.6559037 C18.9919534,1.67405926 17.7375986,1.0585963 16.3493907,1.0585963 C13.687509,1.0585963 11.5279211,3.3263963 11.5279211,6.12132222 C11.5279211,6.51811481 11.569319,6.90332222 11.6521147,7.27404815 C7.64342294,7.06117037 4.09010753,5.04969259 1.70973118,1.98251481 C1.29437276,2.7341037 1.05702509,3.60444074 1.05702509,4.53125556 C1.05702509,6.28496296 1.90844086,7.83592963 3.20281362,8.74391852 C2.41349462,8.7193 1.66833333,8.49049259 1.01700717,8.11252593 L1.01700717,8.1747963 C1.01700717,10.6279593 2.67982079,12.6741926 4.88770609,13.1390481 C4.4833871,13.2577963 4.05698925,13.3171704 3.61679211,13.3171704 C3.30630824,13.3171704 3.00272401,13.2867593 2.70879928,13.2273852 C3.32286738,15.2374148 5.10297491,16.7014926 7.21426523,16.7420407 C5.56387097,18.0989556 3.48293907,18.9084704 1.22399642,18.9084704 C0.834856631,18.9084704 0.449856631,18.8853 0.0731362007,18.8389593 C2.2078853,20.2740741 4.74419355,21.1125519 7.46679211,21.1125519 C16.3397312,21.1125519 21.1901792,13.3997148 21.1901792,6.70782222 C21.1901792,6.48915185 21.1860394,6.26903333 21.1777599,6.05325926 C22.1202509,5.33932222 22.9385484,4.44871111 23.5829749,3.43211111" id="social-twitter"></path>
                </g>
            </g>
        </g>
    </g>
</svg>