<?xml version="1.0" encoding="UTF-8" standalone="no"?>
<svg width="22px" height="19px" viewBox="0 0 22 19" version="1.1" xmlns="http://www.w3.org/2000/svg" xmlns:xlink="http://www.w3.org/1999/xlink" xmlns:sketch="http://www.bohemiancoding.com/sketch/ns">
    <!-- Generator: Sketch 3.3.1 (12002) - http://www.bohemiancoding.com/sketch -->
    <title>social-youtube</title>
    <desc>Created with Sketch.</desc>
    <defs></defs>
    <g id="Landing-Page" stroke="none" stroke-width="1" fill="none" fill-rule="evenodd" sketch:type="MSPage">
        <g id="social-connect-landing-page_C2" sketch:type="MSArtboardGroup" transform="translate(-806.000000, -2718.000000)" fill="#231F20">
            <g id="FOOTER" sketch:type="MSLayerGroup" transform="translate(-2.500000, 2608.000000)">
                <g id="Social" transform="translate(712.000000, 108.000000)" sketch:type="MSShapeGroup">
                    <path d="M109.732452,15.0023889 C109.669113,14.9142222 109.562306,14.8707778 109.434387,14.8707778 C109.371048,14.8707778 109.296532,14.8822778 109.233194,14.9142222 C109.168613,14.9487222 109.094097,15.0023889 109.030758,15.0688333 L109.030758,18.1572222 C109.105274,18.2351667 109.189726,18.3016111 109.264242,18.3335556 C109.34,18.3655 109.413274,18.3885 109.489032,18.3885 C109.616952,18.3885 109.701403,18.3565556 109.753565,18.2786111 C109.806968,18.2134444 109.839258,18.1022778 109.839258,17.9387222 L109.839258,15.3755 C109.839258,15.2106667 109.806968,15.0905556 109.732452,15.0023889 L109.732452,15.0023889 Z M109.732452,15.0023889 C109.669113,14.9142222 109.562306,14.8707778 109.434387,14.8707778 C109.371048,14.8707778 109.296532,14.8822778 109.233194,14.9142222 C109.168613,14.9487222 109.094097,15.0023889 109.030758,15.0688333 L109.030758,18.1572222 C109.105274,18.2351667 109.189726,18.3016111 109.264242,18.3335556 C109.34,18.3655 109.413274,18.3885 109.489032,18.3885 C109.616952,18.3885 109.701403,18.3565556 109.753565,18.2786111 C109.806968,18.2134444 109.839258,18.1022778 109.839258,17.9387222 L109.839258,15.3755 C109.839258,15.2106667 109.806968,15.0905556 109.732452,15.0023889 L109.732452,15.0023889 Z M109.434387,14.8707778 C109.371048,14.8707778 109.296532,14.8822778 109.233194,14.9142222 C109.168613,14.9487222 109.094097,15.0023889 109.030758,15.0688333 L109.030758,18.1572222 C109.105274,18.2351667 109.189726,18.3016111 109.264242,18.3335556 C109.34,18.3655 109.413274,18.3885 109.489032,18.3885 C109.616952,18.3885 109.701403,18.3565556 109.753565,18.2786111 C109.806968,18.2134444 109.839258,18.1022778 109.839258,17.9387222 L109.839258,15.3755 C109.839258,15.2106667 109.806968,15.0905556 109.732452,15.0023889 C109.669113,14.9142222 109.562306,14.8707778 109.434387,14.8707778 L109.434387,14.8707778 Z M114.173613,16.7452778 L112.330581,16.7452778 L112.330581,17.6755 C112.330581,17.9387222 112.351694,18.1150556 112.416274,18.2134444 C112.479613,18.3220556 112.597597,18.3655 112.746629,18.3655 C112.905597,18.3655 113.012403,18.3220556 113.075742,18.2351667 C113.140323,18.1572222 113.171371,17.9604444 113.171371,17.6755 L113.171371,17.4467778 L114.173613,17.4467778 L114.173613,17.6972222 C114.173613,18.2134444 114.045694,18.5955 113.79979,18.8472222 C113.566306,19.1104444 113.202419,19.2318333 112.725516,19.2318333 C112.288355,19.2318333 111.948065,19.1002222 111.702161,18.8267778 C111.458742,18.5533333 111.330823,18.1802222 111.330823,17.6972222 L111.330823,15.4738889 C111.330823,15.0471111 111.468677,14.6957222 111.745629,14.4222778 C112.011403,14.1577778 112.362871,14.0172222 112.79879,14.0172222 C113.235952,14.0172222 113.577484,14.1488333 113.809726,14.4005556 C114.045694,14.6522778 114.173613,15.0023889 114.173613,15.4738889 L114.173613,16.7452778 L114.173613,16.7452778 Z M110.829081,18.0703333 C110.829081,18.4204444 110.754565,18.6938889 110.605532,18.8817222 C110.457742,19.067 110.232952,19.1653889 109.947306,19.1653889 C109.753565,19.1653889 109.594597,19.1321667 109.445565,19.0567778 C109.296532,18.9788333 109.158677,18.8702222 109.030758,18.7168889 L109.030758,19.1002222 L108.062048,19.1002222 L108.062048,12.3855 L109.030758,12.3855 L109.030758,14.5423889 C109.158677,14.4005556 109.296532,14.2804444 109.445565,14.2037778 C109.594597,14.1258333 109.743629,14.0836667 109.892661,14.0836667 C110.190726,14.0836667 110.425452,14.1922778 110.584419,14.4005556 C110.744629,14.6088333 110.829081,14.9142222 110.829081,15.3218333 L110.829081,18.0703333 L110.829081,18.0703333 Z M107.336758,19.1002222 L106.368048,19.1002222 L106.368048,18.5533333 C106.197903,18.7603333 106.006645,18.9136667 105.815387,19.0120556 C105.624129,19.1219444 105.441565,19.1768889 105.260242,19.1768889 C105.037935,19.1768889 104.86779,19.1002222 104.749806,18.9456111 C104.643,18.8037778 104.590839,18.5852778 104.590839,18.2901111 L104.590839,14.1373333 L105.548371,14.1373333 L105.548371,17.9502222 C105.548371,18.0588333 105.569484,18.147 105.612952,18.2006667 C105.645242,18.2568889 105.719758,18.2786111 105.805452,18.2786111 C105.878726,18.2786111 105.964419,18.2466667 106.071226,18.1687222 C106.187968,18.1022778 106.284839,18.0153889 106.368048,17.9055 L106.368048,14.1373333 L107.336758,14.1373333 L107.336758,19.1002222 L107.336758,19.1002222 Z M104.166097,13.3591667 L103.037177,13.3591667 L103.037177,19.1002222 L101.950484,19.1002222 L101.950484,13.3591667 L100.832742,13.3591667 L100.832742,12.3855 L104.166097,12.3855 L104.166097,13.3591667 L104.166097,13.3591667 Z M115.194484,11.1792778 L100.098758,11.1792778 C98.4482258,11.1792778 97.0858226,12.5822778 97.0858226,14.2906667 L97.0858226,17.457 C97.0858226,19.1653889 98.4482258,20.5581667 100.098758,20.5581667 L115.194484,20.5581667 C116.845016,20.5581667 118.208661,19.1653889 118.208661,17.457 L118.208661,14.2906667 C118.208661,12.5822778 116.845016,11.1792778 115.194484,11.1792778 L115.194484,11.1792778 Z M109.732452,15.0023889 C109.669113,14.9142222 109.562306,14.8707778 109.434387,14.8707778 C109.371048,14.8707778 109.296532,14.8822778 109.233194,14.9142222 C109.168613,14.9487222 109.094097,15.0023889 109.030758,15.0688333 L109.030758,18.1572222 C109.105274,18.2351667 109.189726,18.3016111 109.264242,18.3335556 C109.34,18.3655 109.413274,18.3885 109.489032,18.3885 C109.616952,18.3885 109.701403,18.3565556 109.753565,18.2786111 C109.806968,18.2134444 109.839258,18.1022778 109.839258,17.9387222 L109.839258,15.3755 C109.839258,15.2106667 109.806968,15.0905556 109.732452,15.0023889 L109.732452,15.0023889 Z M109.732452,15.0023889 C109.669113,14.9142222 109.562306,14.8707778 109.434387,14.8707778 C109.371048,14.8707778 109.296532,14.8822778 109.233194,14.9142222 C109.168613,14.9487222 109.094097,15.0023889 109.030758,15.0688333 L109.030758,18.1572222 C109.105274,18.2351667 109.189726,18.3016111 109.264242,18.3335556 C109.34,18.3655 109.413274,18.3885 109.489032,18.3885 C109.616952,18.3885 109.701403,18.3565556 109.753565,18.2786111 C109.806968,18.2134444 109.839258,18.1022778 109.839258,17.9387222 L109.839258,15.3755 C109.839258,15.2106667 109.806968,15.0905556 109.732452,15.0023889 L109.732452,15.0023889 Z M113.075742,15.0253889 C113.140323,15.1122778 113.171371,15.2656111 113.171371,15.4623889 L113.171371,15.9658333 L112.330581,15.9658333 L112.330581,15.4623889 C112.330581,15.2656111 112.351694,15.1122778 112.42621,15.0253889 C112.49079,14.9372222 112.597597,14.8822778 112.757806,14.8822778 C112.905597,14.8822778 113.012403,14.9372222 113.075742,15.0253889 L113.075742,15.0253889 Z M104.611952,1.99844444 L103.856855,4.9565 L103.771161,4.9565 L102.982532,1.99844444 L101.74929,1.99844444 L103.207323,6.46811111 L103.207323,9.39422222 L104.430629,9.39422222 L104.430629,6.325 L105.847677,1.99844444 L104.611952,1.99844444 L104.611952,1.99844444 Z M107.976355,8.12283333 C107.976355,8.26466667 107.934129,8.37455556 107.847194,8.46144444 C107.763984,8.55088889 107.646,8.59305556 107.496968,8.59305556 C107.359113,8.59305556 107.242371,8.55088889 107.166613,8.46144444 C107.093339,8.38605556 107.049871,8.26466667 107.049871,8.12283333 L107.049871,5.14305556 C107.049871,5.02294444 107.093339,4.92455556 107.17779,4.85811111 C107.252306,4.78016667 107.369048,4.74822222 107.496968,4.74822222 C107.634823,4.74822222 107.752806,4.78016667 107.847194,4.85811111 C107.934129,4.92455556 107.976355,5.02294444 107.976355,5.14305556 L107.976355,8.12283333 L107.976355,8.12283333 Z M108.656935,4.20005556 C108.368806,3.92788889 107.997468,3.795 107.551613,3.795 C107.061048,3.795 106.667355,3.92788889 106.368048,4.17961111 C106.081161,4.43005556 105.933371,4.75844444 105.933371,5.1865 L105.933371,8.01422222 C105.933371,8.48444444 106.081161,8.84477778 106.358113,9.12077778 C106.645,9.39422222 107.028758,9.53605556 107.496968,9.53605556 C107.98629,9.53605556 108.381226,9.40572222 108.656935,9.131 C108.945065,8.86777778 109.082919,8.50616667 109.082919,8.03466667 L109.082919,5.21972222 C109.082919,4.80316667 108.933887,4.46327778 108.656935,4.20005556 L108.656935,4.20005556 Z M111.969177,3.93683333 L111.969177,8.07938889 C111.872306,8.19822222 111.756806,8.29661111 111.638823,8.37455556 C111.510903,8.4525 111.415274,8.49466667 111.330823,8.49466667 C111.235194,8.49466667 111.159435,8.46144444 111.11721,8.4065 C111.063806,8.34133333 111.042694,8.25444444 111.042694,8.12283333 L111.042694,3.93683333 L109.956,3.93683333 L109.956,8.49466667 C109.956,8.82433333 110.020581,9.06455556 110.1485,9.22938889 C110.275177,9.39422222 110.468919,9.46961111 110.712339,9.46961111 C110.925952,9.46961111 111.127145,9.41466667 111.350694,9.30605556 C111.564306,9.18594444 111.766742,9.02111111 111.969177,8.79111111 L111.969177,9.39422222 L113.055871,9.39422222 L113.055871,3.93683333 L111.969177,3.93683333 L111.969177,3.93683333 Z" id="social-youtube"></path>
                </g>
            </g>
        </g>
    </g>
</svg>