<?xml version="1.0" encoding="UTF-8" standalone="no"?>
<svg width="21px" height="23px" viewBox="0 0 21 23" version="1.1" xmlns="http://www.w3.org/2000/svg" xmlns:xlink="http://www.w3.org/1999/xlink" xmlns:sketch="http://www.bohemiancoding.com/sketch/ns">
    <!-- Generator: Sketch 3.3.1 (12002) - http://www.bohemiancoding.com/sketch -->
    <title>social-googleplus</title>
    <desc>Created with Sketch.</desc>
    <defs></defs>
    <g id="Landing-Page" stroke="none" stroke-width="1" fill="none" fill-rule="evenodd" sketch:type="MSPage">
        <g id="social-connect-landing-page_C2" sketch:type="MSArtboardGroup" transform="translate(-774.000000, -2716.000000)" fill="#231F20">
            <g id="FOOTER" sketch:type="MSLayerGroup" transform="translate(-2.500000, 2608.000000)">
                <g id="Social" transform="translate(712.000000, 108.000000)" sketch:type="MSShapeGroup">
                    <path d="M85.4762097,9.69066667 L82.929,9.69066667 L82.929,7.06994444 L80.8798065,7.06994444 L80.8798065,9.69066667 L78.3338387,9.69066667 L78.3338387,11.8002778 L80.8798065,11.8002778 L80.8798065,14.4197222 L82.929,14.4197222 L82.929,11.8002778 L85.4762097,11.8002778 L85.4762097,9.69066667 L85.4762097,9.69066667 Z M75.9580161,12.8659444 C75.3668548,12.4340556 74.2366935,11.3862778 74.2366935,10.7716667 C74.2366935,10.0497222 74.4378871,9.6945 75.4922903,8.84477778 C76.5740161,7.97461111 77.3402903,6.75177778 77.3402903,5.32961111 C77.3402903,3.63655556 76.6075484,1.98694444 75.2314839,1.44133333 L77.3055161,1.44133333 L78.7697581,0.353944444 L72.2272419,0.353944444 C69.2950323,0.353944444 66.5354516,2.63988889 66.5354516,5.28744444 C66.5354516,7.99377778 68.5349677,10.1787778 71.5180968,10.1787778 C71.7255,10.1787778 71.9266935,10.1736667 72.1241613,10.1596111 C71.9304194,10.5403889 71.7913226,10.971 71.7913226,11.4156667 C71.7913226,12.1682778 72.1850161,12.7790556 72.6817903,13.2773889 C72.3067258,13.2773889 71.9428387,13.2888889 71.5491452,13.2888889 C67.9164839,13.2888889 65.1196452,15.6681111 65.1196452,18.1380556 C65.1196452,20.5683889 68.1847419,22.0889444 71.8174032,22.0889444 C75.9580161,22.0889444 78.2456613,19.6713889 78.2456613,17.2397778 C78.2456613,15.2898889 77.6867903,14.122 75.9580161,12.8659444 L75.9580161,12.8659444 Z M72.4644516,9.49261111 C70.7791452,9.44022222 69.1770484,7.55166667 68.8864355,5.27466667 C68.5945806,2.99766667 69.7259839,1.25477778 71.4112903,1.30588889 C73.0953548,1.35827778 74.6974516,3.18422222 74.9880645,5.4625 C75.2786774,7.7395 74.1497581,9.545 72.4644516,9.49261111 L72.4644516,9.49261111 Z M71.8037419,21.0143333 C69.2925484,21.0143333 67.4793226,19.3787778 67.4793226,17.4135556 C67.4793226,15.4879444 69.7297097,13.8843333 72.2396613,13.9137222 C72.8258548,13.9201111 73.3723065,14.0172222 73.8678387,14.1820556 C75.2302419,15.1582778 76.2076452,15.7077222 76.4833548,16.8193889 C76.5355161,17.0455556 76.5640806,17.2768333 76.5640806,17.5132222 C76.5640806,19.4784444 75.3345645,21.0143333 71.8037419,21.0143333 L71.8037419,21.0143333 Z" id="social-googleplus"></path>
                </g>
            </g>
        </g>
    </g>
</svg>