<svg width="16px" height="20px" viewBox="0 0 16 20" version="1.1" xmlns="http://www.w3.org/2000/svg" xmlns:xlink="http://www.w3.org/1999/xlink">
	<path d="M7.5644911,19.9001966 C7.8437183,20.0332678 8.1571365,20.0332678 8.4352239,19.9001966 C8.5754074,19.8397097 8.7019143,19.755028 8.806767,19.6461515 L15.666637,12.3635264 C16.111121,11.8917284 16.111121,11.1295932 15.666637,10.6577953 C15.2210133,10.1738999 14.4995815,10.1738999 14.0550975,10.6577953 L9.1395601,15.8717677 L9.1395601,1.2097384 C9.1395601,0.5322849 8.6301131,0 7.9998575,0 C7.369602,0 6.8601549,0.5322849 6.8601549,1.2097384 L6.8601549,15.8717677 L1.9457573,10.6577953 C1.7223756,10.4158476 1.4306117,10.2948737 1.1399875,10.2948737 C0.8482237,10.2948737 0.5564598,10.4158476 0.3342178,10.6577953 C-0.1114059,11.1295932 -0.1114059,11.8917284 0.3342178,12.3635264 L7.1929481,19.6461515 C7.2978007,19.755028 7.4243077,19.8397097 7.5644911,19.9001966 L7.5644911,19.9001966 L7.5644911,19.9001966 Z" class="vote-down" fill="#9E9F9E"></path>
</svg>