<svg width="16px" height="20px" viewBox="0 0 16 20" version="1.1" xmlns="http://www.w3.org/2000/svg" xmlns:xlink="http://www.w3.org/1999/xlink">
        <path d="M8.4355089,0.0998034 C8.1562817,-0.0332678 7.8428635,-0.0332678 7.5647761,0.0998034 C7.4245926,0.1602903 7.2980857,0.244972 7.193233,0.3538485 L0.333363,7.6364736 C-0.111121,8.1082716 -0.111121,8.8704068 0.333363,9.3422047 C0.7789867,9.8261001 1.5004185,9.8261001 1.9449025,9.3422047 L6.8604399,4.1282323 L6.8604399,18.7902616 C6.8604399,19.4677151 7.3698869,20 8.0001425,20 C8.630398,20 9.1398451,19.4677151 9.1398451,18.7902616 L9.1398451,4.1282323 L14.0542427,9.3422047 C14.2776244,9.5841524 14.5693883,9.7051263 14.8600125,9.7051263 C15.1517763,9.7051263 15.4435402,9.5841524 15.6657822,9.3422047 C16.1114059,8.8704068 16.1114059,8.1082716 15.6657822,7.6364736 L8.8070519,0.3538485 C8.7021993,0.244972 8.5756923,0.1602903 8.4355089,0.0998034 L8.4355089,0.0998034 L8.4355089,0.0998034 Z" class="vote-up" fill="#9E9F9E"></path>
</svg>